<?xml version="1.0" encoding="UTF-8" standalone="no"?>
<!-- Created with Inkscape (http://www.inkscape.org/) -->

<svg
   xmlns:dc="http://purl.org/dc/elements/1.1/"
   xmlns:cc="http://creativecommons.org/ns#"
   xmlns:rdf="http://www.w3.org/1999/02/22-rdf-syntax-ns#"
   xmlns:svg="http://www.w3.org/2000/svg"
   xmlns="http://www.w3.org/2000/svg"
   xmlns:sodipodi="http://sodipodi.sourceforge.net/DTD/sodipodi-0.dtd"
   xmlns:inkscape="http://www.inkscape.org/namespaces/inkscape"
   width="100"
   height="100"
   id="svg4293"
   version="1.1"
   inkscape:version="0.91 r13725"
   sodipodi:docname="IconPancreas.svg"
   inkscape:export-filename="/home/micha/Projects/IMHOTEP/IMHOTEPUnity/raw/UI/ToolIcomDicom.png"
   inkscape:export-xdpi="256"
   inkscape:export-ydpi="256">
  <defs
     id="defs4295">
    <clipPath
       clipPathUnits="userSpaceOnUse"
       id="clipPath4788">
      <path
         style="fill:#ffffff;fill-opacity:1;fill-rule:nonzero;stroke:#ffffff;stroke-width:3.39546537;stroke-linecap:round;stroke-linejoin:round;stroke-miterlimit:4;stroke-dasharray:none;stroke-dashoffset:0;stroke-opacity:1"
         d="m 114.01888,862.1734 -39.124215,6.7345 -2.565512,35.59663 63.496667,-7.69657 -4.81036,-32.38972 z"
         id="path4790"
         inkscape:connector-curvature="0" />
    </clipPath>
    <clipPath
       clipPathUnits="userSpaceOnUse"
       id="clipPath3869">
      <path
         style="opacity:0.9;fill:none;stroke:#8d3800;stroke-width:3;stroke-linecap:round;stroke-linejoin:round;stroke-miterlimit:4;stroke-dasharray:none;stroke-dashoffset:0;stroke-opacity:1"
         d="m 45.334386,1005.0444 0.566679,-6.13905 -5.005671,-3.30563 0.944466,-8.02796 1.983379,-7.0835 18.133755,3.87231 0.28334,24.46163 z"
         id="path3871"
         inkscape:connector-curvature="0" />
    </clipPath>
    <filter
       style="color-interpolation-filters:sRGB;"
       inkscape:label="Drop Shadow"
       id="filter6525">
      <feFlood
         flood-opacity="0.498039"
         flood-color="rgb(0,0,0)"
         result="flood"
         id="feFlood6527" />
      <feComposite
         in="flood"
         in2="SourceGraphic"
         operator="in"
         result="composite1"
         id="feComposite6529" />
      <feGaussianBlur
         in="composite1"
         stdDeviation="2"
         result="blur"
         id="feGaussianBlur6531" />
      <feOffset
         dx="3"
         dy="3"
         result="offset"
         id="feOffset6533" />
      <feComposite
         in="SourceGraphic"
         in2="offset"
         operator="over"
         result="composite2"
         id="feComposite6535" />
    </filter>
    <filter
       inkscape:collect="always"
       style="color-interpolation-filters:sRGB"
       id="filter6581"
       x="-0.076175052"
       width="1.1523501"
       y="-0.12977447"
       height="1.2595489">
      <feGaussianBlur
         inkscape:collect="always"
         stdDeviation="2.1265055"
         id="feGaussianBlur6583" />
    </filter>
  </defs>
  <sodipodi:namedview
     id="base"
     pagecolor="#829dc0"
     bordercolor="#666666"
     borderopacity="1.0"
     inkscape:pageopacity="0"
     inkscape:pageshadow="2"
     inkscape:zoom="3.7434196"
     inkscape:cx="79.323726"
     inkscape:cy="16.478951"
     inkscape:document-units="px"
     inkscape:current-layer="layer1"
     showgrid="true"
     inkscape:snap-global="false"
     inkscape:window-width="1077"
     inkscape:window-height="857"
     inkscape:window-x="307"
     inkscape:window-y="67"
     inkscape:window-maximized="0"
     borderlayer="false"
     inkscape:showpageshadow="true"
     showborder="true"
     showguides="false">
    <inkscape:grid
       type="xygrid"
       id="grid4301"
       empspacing="10"
       visible="true"
       enabled="true"
       snapvisiblegridlinesonly="true"
       spacingx="5px"
       spacingy="5px" />
  </sodipodi:namedview>
  <metadata
     id="metadata4298">
    <rdf:RDF>
      <cc:Work
         rdf:about="">
        <dc:format>image/svg+xml</dc:format>
        <dc:type
           rdf:resource="http://purl.org/dc/dcmitype/StillImage" />
        <dc:title></dc:title>
      </cc:Work>
    </rdf:RDF>
  </metadata>
  <g
     inkscape:groupmode="layer"
     id="layer2"
     inkscape:label="Background"
     style="display:none"
     transform="translate(0,-260)">
    <rect
       style="opacity:0.9;fill:#1a1a1a;fill-opacity:0.88235294;fill-rule:nonzero;stroke:#a42e00;stroke-width:3;stroke-linecap:round;stroke-linejoin:round;stroke-miterlimit:4;stroke-dasharray:none;stroke-dashoffset:0;stroke-opacity:1"
       id="rect3771"
       width="585"
       height="540"
       x="-90"
       y="-90"
       sodipodi:insensitive="true" />
  </g>
  <g
     inkscape:label="Layer 1"
     inkscape:groupmode="layer"
     id="layer1"
     transform="translate(0,-952.3622)">
    <path
       style="fill:#808080;fill-opacity:1;fill-rule:evenodd;stroke:none;stroke-width:1px;stroke-linecap:butt;stroke-linejoin:miter;stroke-opacity:1"
       d="m 18.920339,980.10146 c 3.193358,4.20067 4.890684,5.67627 9.604719,7.33032 0,0 -7.695035,2.47071 -7.139788,9.13367 0.555247,6.66305 -0.944977,9.43635 5.162742,12.49015 6.107718,3.0539 7.885566,5.0002 10.661802,3.0568 2.776235,-1.9433 6.94059,-4.7196 10.549696,-4.1643 6.822529,1.182 9.51769,2.2745 13.325932,9.3003 l -9.161578,6.5241 c 0,0 -1.388118,-3.3313 -4.441977,-3.609 -3.05386,-0.2776 -6.139361,3.6352 -10.549696,4.1644 -6.94059,0.8329 -13.030251,0.221 -18.323157,-4.1644 -4.858413,-4.0255 -9.0297429,-9.1518 -9.7168259,-16.9351 -0.687082,-7.78345 2.0835109,-13.47062 3.7183239,-16.13004 1.073346,-1.74607 6.309807,-6.9969 6.309807,-6.9969 z"
       id="path5331"
       inkscape:connector-curvature="0"
       sodipodi:nodetypes="ccsscccccsszsc" />
    <path
       sodipodi:nodetypes="ccccccccccccccccccccccccccccccccccccccccccccccccccccccccccc"
       inkscape:connector-curvature="0"
       id="path6579"
       d="m 37.266448,1016.7499 c -1.602331,0.6595 -3.084387,-0.023 -4.442463,-0.5523 -1.688449,0.5792 -2.776146,-0.483 -3.698575,-1.8184 -1.106404,-0.5657 -2.085119,-0.07 -2.932434,-2.7817 -1.2858,-0.7252 -2.166182,-1.766 -2.144044,-3.4418 -1.165045,-1.0567 -2.227399,-2.1638 -1.333399,-3.7991 -1.135371,-1.5684 -1.215939,-2.8406 -0.500507,-3.8533 -1.168383,-1.74965 -0.569822,-2.76165 0.354641,-3.60465 -0.650416,-2.58817 0.336816,-2.69812 1.232037,-3.05272 0.40773,-1.57731 0.798942,-3.07144 2.534129,-2.58431 0.468827,-1.5268 1.380193,-2.08232 2.669144,-1.79698 0.905531,-1.69199 1.823532,-1.72409 2.743974,-1.13328 1.12823,-1.94319 1.869824,-0.68376 2.758613,-0.59321 1.31964,-0.93016 2.203732,-0.935 2.713066,-0.17677 0.890077,-0.40729 1.76253,-0.82491 2.60733,0.11603 1.381784,-0.54346 2.565294,-0.62403 3.58108,0.45262 1.666085,-0.5532 3.04699,-0.0968 4.074747,0.60909 0.974741,-0.27265 1.92474,-0.63603 2.850675,0.32125 1.066176,-0.61402 1.94902,-0.45126 2.706285,0.2042 1.618415,-0.37714 3.231164,-0.7004 4.995641,0.0873 1.458027,-0.43216 2.864299,-1.0206 4.466795,-0.29177 1.614821,-1.1696 3.292419,-1.31567 4.912765,-0.83389 1.460345,-1.13128 2.874184,-1.48725 4.153651,-1.16195 1.721777,-0.9338 3.368086,-1.84692 5.360476,-2.4078 0.769454,-0.4316 1.480536,-0.87172 2.13866,-1.31045 0.658125,-0.43873 1.263291,-0.87606 1.820913,-1.30206 0.557621,-0.426 1.067697,-0.84068 1.535639,-1.23409 0.467943,-0.39341 0.893753,-0.76557 1.282845,-1.10655 0.77818,-0.68196 1.40948,-1.23916 1.937203,-1.5922 0.527722,-0.35304 0.951867,-0.50192 1.315734,-0.36719 0.364381,0.13882 0.659356,0.35138 0.892246,0.62574 0.232889,0.27438 0.403692,0.61056 0.51973,0.99663 0.116038,0.38607 0.177311,0.82203 0.191138,1.29594 0.01382,0.47391 -0.01979,0.98578 -0.09353,1.52367 -0.07375,0.53791 -0.187612,1.10182 -0.334286,1.67985 -0.146674,0.57801 -0.326154,1.17013 -0.531118,1.76442 -0.204964,0.59428 -0.435413,1.19075 -0.684027,1.77744 -0.248615,0.5867 -0.515394,1.16363 -0.793017,1.71888 -0.431493,1.99708 -1.801161,3.20442 -3.394714,4.16208 -0.483036,0.60787 -0.100871,1.18611 -1.773166,1.73568 -0.646173,0.5872 -1.30767,1.1417 -1.983651,1.6648 -1.072102,1.249 -2.146857,2.4317 -4.082521,2.69264 -1.130894,0.99581 -2.14702,2.00471 -4.371823,2.03891 -1.285606,1.1163 -2.740628,1.8145 -4.624726,1.4391 -1.579682,0.7753 -3.195448,1.7856 -4.84123,0.8934 -1.574629,0.2483 -1.999144,1.0048 -5.021331,0.4014 -1.558238,0.6243 -3.303589,0.522 -5.165033,-0.036 -0.624653,-0.034 -1.24063,-0.074 -1.84251,-0.1154 -1.169007,0.7287 -2.30518,0.3054 -3.398719,-0.2701 -1.652542,0.6009 -3.208196,0.2535 -4.741289,-0.4233 -0.2375,-0.016 -0.428366,-0.025 -0.567178,-0.025 0.838074,0.5838 1.517922,1.2274 2.053632,1.9073 0.681372,0.5827 1.509998,1.0075 1.188795,2.1249 0.261516,0.7289 0.392976,1.4706 0.408467,2.2016 0.275103,0.7312 0.651753,1.4516 -0.287351,2.1378 0.07453,0.7554 0.218924,1.5196 -0.89865,1.9327 0.01556,0.9002 -0.242763,1.6032 -1.425461,1.5871 -1.085215,1.5761 -2.552708,1.8849 -4.093292,1.5734 z"
       style="fill:#000000;fill-rule:evenodd;stroke:none;stroke-width:1px;stroke-linecap:butt;stroke-linejoin:miter;stroke-opacity:1;filter:url(#filter6581);opacity:0.5" />
    <path
       style="fill:#ffffff;fill-rule:evenodd;stroke:none;stroke-width:1px;stroke-linecap:butt;stroke-linejoin:miter;stroke-opacity:1;"
       d="m 35.266448,1014.7499 c -1.602331,0.6595 -3.084387,-0.023 -4.442463,-0.5523 -1.688449,0.5792 -2.776146,-0.483 -3.698575,-1.8184 -1.106404,-0.5657 -2.085119,-0.07 -2.932434,-2.7817 -1.2858,-0.7252 -2.166182,-1.766 -2.144044,-3.4418 -1.165045,-1.0567 -2.227399,-2.1638 -1.333399,-3.7991 -1.135371,-1.5684 -1.215939,-2.84061 -0.500507,-3.85331 -1.168383,-1.74964 -0.569822,-2.76164 0.354641,-3.60464 -0.650416,-2.58817 0.336816,-2.69812 1.232037,-3.05272 0.40773,-1.57731 0.798942,-3.07144 2.534129,-2.58431 0.468827,-1.5268 1.380193,-2.08232 2.669144,-1.79698 0.905531,-1.69199 1.823532,-1.72409 2.743974,-1.13328 1.12823,-1.94319 1.869824,-0.68376 2.758613,-0.59321 1.31964,-0.93016 2.203732,-0.935 2.713066,-0.17677 0.890077,-0.40729 1.76253,-0.82491 2.60733,0.11603 1.381784,-0.54346 2.565294,-0.62403 3.58108,0.45262 1.666085,-0.5532 3.04699,-0.0968 4.074747,0.60909 0.974741,-0.27265 1.92474,-0.63603 2.850675,0.32125 1.066176,-0.61402 1.94902,-0.45126 2.706285,0.2042 1.618415,-0.37714 3.231164,-0.7004 4.995641,0.0873 1.458027,-0.43216 2.864299,-1.0206 4.466795,-0.29177 1.614821,-1.1696 3.292419,-1.31567 4.912765,-0.83389 1.460345,-1.13128 2.874184,-1.48725 4.153651,-1.16195 1.721777,-0.9338 3.368086,-1.84692 5.360476,-2.4078 0.769454,-0.4316 1.480536,-0.87172 2.13866,-1.31045 0.658125,-0.43873 1.263291,-0.87606 1.820913,-1.30206 0.557621,-0.426 1.067697,-0.84068 1.535639,-1.23409 0.467943,-0.39341 0.893753,-0.76557 1.282845,-1.10655 0.77818,-0.68196 1.40948,-1.23916 1.937203,-1.5922 0.527722,-0.35304 0.951867,-0.50192 1.315734,-0.36719 0.364381,0.13882 0.659356,0.35138 0.892246,0.62574 0.232889,0.27438 0.403692,0.61056 0.51973,0.99663 0.116038,0.38607 0.177311,0.82203 0.191138,1.29594 0.01382,0.47391 -0.01979,0.98578 -0.09353,1.52367 -0.07375,0.53791 -0.187612,1.10182 -0.334286,1.67985 -0.146674,0.57801 -0.326154,1.17013 -0.531118,1.76442 -0.204964,0.59428 -0.435413,1.19075 -0.684027,1.77744 -0.248615,0.5867 -0.515394,1.16363 -0.793017,1.71888 -0.431493,1.99708 -1.801161,3.20442 -3.394714,4.16208 -0.483036,0.60787 -0.100871,1.18611 -1.773166,1.73568 -0.646173,0.5872 -1.30767,1.1417 -1.983651,1.6648 -1.072102,1.249 -2.146857,2.4317 -4.082521,2.69264 -1.130894,0.9958 -2.14702,2.0047 -4.371823,2.0389 -1.285606,1.11631 -2.740628,1.81451 -4.624726,1.43911 -1.579682,0.7753 -3.195448,1.7856 -4.84123,0.8934 -1.574629,0.2483 -1.999144,1.0048 -5.021331,0.4014 -1.558238,0.6243 -3.303589,0.522 -5.165033,-0.036 -0.624653,-0.034 -1.24063,-0.074 -1.84251,-0.1154 -1.169007,0.7287 -2.30518,0.3054 -3.398719,-0.2701 -1.652542,0.6009 -3.208196,0.2535 -4.741289,-0.4233 -0.2375,-0.016 -0.428366,-0.025 -0.567178,-0.025 0.838074,0.5838 1.517922,1.2274 2.053632,1.9073 0.681372,0.5827 1.509998,1.0075 1.188795,2.1249 0.261516,0.7289 0.392976,1.4706 0.408467,2.2016 0.275103,0.7312 0.651753,1.4516 -0.287351,2.1378 0.07453,0.7554 0.218924,1.5196 -0.89865,1.9327 0.01556,0.9002 -0.242763,1.6032 -1.425461,1.5871 -1.085215,1.5761 -2.552708,1.8849 -4.093292,1.5734 z"
       id="path5314"
       inkscape:connector-curvature="0"
       sodipodi:nodetypes="ccccccccccccccccccccccccccccccccccccccccccccccccccccccccccc" />
    <path
       style="fill:#ffffff;fill-rule:evenodd;stroke:none;stroke-width:1px;stroke-linecap:butt;stroke-linejoin:miter;stroke-opacity:1"
       d="m 11.946588,1097.3262 c -12.33437429,0.4667 -17.2620803,-15.1725 -12.9560673,-22.0385 6.277683,-7.747 14.5588803,-6.1442 19.9015893,-5.3428 31.557821,5.2393 38.070753,-11.1883 40.87172,-10.1512 2.804922,1.0686 1.335678,6.6784 -0.801406,10.9526 -8.21488,11.7031 -20.519884,15.0341 -33.926199,14.4252 -4.808438,-0.2671 -9.082605,-0.8014 -10.151147,-0.8014 6.451303,4.494 3.158791,12.668 -2.93849,12.9561 z"
       id="path5314-6"
       inkscape:connector-curvature="0"
       sodipodi:nodetypes="cccccccc" />
  </g>
</svg>
