<?xml version="1.0" encoding="UTF-8" standalone="no"?>
<!-- Created with Inkscape (http://www.inkscape.org/) -->

<svg
   xmlns:dc="http://purl.org/dc/elements/1.1/"
   xmlns:cc="http://creativecommons.org/ns#"
   xmlns:rdf="http://www.w3.org/1999/02/22-rdf-syntax-ns#"
   xmlns:svg="http://www.w3.org/2000/svg"
   xmlns="http://www.w3.org/2000/svg"
   xmlns:sodipodi="http://sodipodi.sourceforge.net/DTD/sodipodi-0.dtd"
   xmlns:inkscape="http://www.inkscape.org/namespaces/inkscape"
   width="100"
   height="100"
   id="svg4293"
   version="1.1"
   inkscape:version="0.92.2 (5c3e80d, 2017-08-06)"
   sodipodi:docname="IconVolumetricRendering.svg"
   inkscape:export-filename="H:\Projects\IMHOTEP\imhotep_unity\Assets\Core\UI\Images\Icons\IconVolumetricRendering.png"
   inkscape:export-xdpi="170.88"
   inkscape:export-ydpi="170.88">
  <defs
     id="defs4295">
    <inkscape:perspective
       sodipodi:type="inkscape:persp3d"
       inkscape:vp_x="8.5518709e-015 : 139.66726 : 0"
       inkscape:vp_y="707.10676 : 707.10676 : 0"
       inkscape:vp_z="190.98066 : 0 : 0"
       inkscape:persp3d-origin="50 : 33.333333 : 1"
       id="perspective17" />
    <clipPath
       clipPathUnits="userSpaceOnUse"
       id="clipPath4788">
      <path
         style="fill:#ffffff;fill-opacity:1;fill-rule:nonzero;stroke:#ffffff;stroke-width:3.39546537;stroke-linecap:round;stroke-linejoin:round;stroke-miterlimit:4;stroke-dasharray:none;stroke-dashoffset:0;stroke-opacity:1"
         d="m 114.01888,862.1734 -39.124215,6.7345 -2.565512,35.59663 63.496667,-7.69657 -4.81036,-32.38972 z"
         id="path4790"
         inkscape:connector-curvature="0" />
    </clipPath>
    <clipPath
       clipPathUnits="userSpaceOnUse"
       id="clipPath3869">
      <path
         style="opacity:0.9;fill:none;stroke:#8d3800;stroke-width:3;stroke-linecap:round;stroke-linejoin:round;stroke-miterlimit:4;stroke-dasharray:none;stroke-dashoffset:0;stroke-opacity:1"
         d="m 45.334386,1005.0444 0.566679,-6.13905 -5.005671,-3.30563 0.944466,-8.02796 1.983379,-7.0835 18.133755,3.87231 0.28334,24.46163 z"
         id="path3871"
         inkscape:connector-curvature="0" />
    </clipPath>
    <pattern
       y="0"
       x="0"
       height="6"
       width="6"
       patternUnits="userSpaceOnUse"
       id="EMFhbasepattern" />
  </defs>
  <sodipodi:namedview
     id="base"
     pagecolor="#001858"
     bordercolor="#666666"
     borderopacity="1.0"
     inkscape:pageopacity="0"
     inkscape:pageshadow="2"
     inkscape:zoom="2.125"
     inkscape:cx="43.493758"
     inkscape:cy="25.113653"
     inkscape:document-units="px"
     inkscape:current-layer="g8546"
     showgrid="true"
     inkscape:snap-global="false"
     inkscape:window-width="1920"
     inkscape:window-height="1017"
     inkscape:window-x="-8"
     inkscape:window-y="-8"
     inkscape:window-maximized="1"
     borderlayer="false"
     inkscape:showpageshadow="true"
     showborder="true"
     showguides="false"
     inkscape:snap-bbox="true"
     inkscape:snap-grids="true"
     inkscape:snap-page="false"
     inkscape:bbox-nodes="true">
    <inkscape:grid
       type="xygrid"
       id="grid4301"
       empspacing="10"
       visible="true"
       enabled="true"
       snapvisiblegridlinesonly="true"
       spacingx="5"
       spacingy="5"
       dotted="false"
       originx="0"
       originy="0" />
  </sodipodi:namedview>
  <metadata
     id="metadata4298">
    <rdf:RDF>
      <cc:Work
         rdf:about="">
        <dc:format>image/svg+xml</dc:format>
        <dc:type
           rdf:resource="http://purl.org/dc/dcmitype/StillImage" />
        <dc:title />
      </cc:Work>
    </rdf:RDF>
  </metadata>
  <g
     inkscape:groupmode="layer"
     id="layer2"
     inkscape:label="Background"
     style="display:inline"
     transform="translate(0,-260)" />
  <g
     inkscape:label="Layer 1"
     inkscape:groupmode="layer"
     id="layer1"
     transform="translate(0,-952.3622)">
    <g
       style="fill:#ffffff;fill-opacity:1;stroke:none;stroke-width:6.77663231;stroke-miterlimit:4;stroke-dasharray:none;stroke-opacity:1"
       id="g8482"
       transform="matrix(0.22951762,0,0,0.22951762,62.38223,786.06909)">
      <rect
         style="fill:#999999;fill-opacity:1;stroke:none;stroke-width:6.77663231;stroke-linejoin:round;stroke-miterlimit:4;stroke-dasharray:none;stroke-opacity:1"
         y="972.36218"
         x="5"
         height="75"
         width="75"
         id="rect8476" />
      <path
         inkscape:connector-curvature="0"
         id="path8478"
         d="m 5,972.3622 15,-15 h 75 l -15,15 H 5"
         style="fill:#666666;fill-opacity:1;stroke:none;stroke-width:6.77663231;stroke-linecap:butt;stroke-linejoin:round;stroke-miterlimit:4;stroke-dasharray:none;stroke-opacity:1" />
      <path
         inkscape:connector-curvature="0"
         id="path8480"
         d="m 80,972.3622 15,-15 v 75 l -15,15 z"
         style="fill:#666666;fill-opacity:1;stroke:none;stroke-width:6.77663231;stroke-linecap:butt;stroke-linejoin:round;stroke-miterlimit:4;stroke-dasharray:none;stroke-opacity:1" />
    </g>
    <path
       style="fill:#e6e6e6;fill-rule:evenodd;stroke:none;stroke-width:1px;stroke-linecap:butt;stroke-linejoin:miter;stroke-opacity:1"
       d="m -21.580438,958.21611 c -2.376368,0.0562 -4.897246,0.71451 -6.117544,2.19171 -1.627063,1.96961 -0.770714,12.41706 -0.770714,12.41706 l -21.915993,21.59009 c 4.223914,1.22575 5.766975,2.46468 5.766975,2.46468 l 6.029233,-0.10436 17.072269,-16.66876 c 0.0483,0.0129 8.186137,1.14598 11.244933,-0.25958 3.0024163,-1.37966 4.3335383,-3.2842 3.8508953,-7.12108 -0.36558,-2.90626 -3.122998,-4.95345 -4.6644263,-5.12472 -1.541428,-0.17126 -3.254127,-0.2569 -3.254127,-0.2569 0,0 0.51381,-2.31214 -0.256904,-4.19611 -0.770714,-1.88397 -1.883968,-4.36738 -4.70992,-4.79555 -0.706488,-0.10706 -1.482554,-0.15522 -2.274677,-0.13649 z m -34.078825,41.55638 -22.329578,22.35361 c -0.0483,-0.013 -7.016082,-1.8753 -9.917594,-0.1686 -2.911586,1.7127 -5.461796,3.4193 -4.632312,6.8214 0.693851,2.8458 2.577075,5.6813 4.118503,5.8526 1.541428,0.1713 3.254126,0.2569 3.254126,0.2569 0,0 -0.513809,2.3121 0.256905,4.1961 0.770714,1.884 1.88394,4.3674 4.70992,4.7956 2.825952,0.4281 6.765157,-0.085 8.39222,-2.0553 1.627064,-1.9696 0.770714,-12.417 0.770714,-12.417 l 25.214977,-24.8837 c -2.315258,-1.9381 -7.381635,-2.5623 -9.837881,-4.75161 z"
       id="path8654"
       inkscape:connector-curvature="0"
       sodipodi:nodetypes="sscccccssscsssccssscsscccc" />
    <path
       style="fill:#ffffff;fill-rule:evenodd;stroke:none;stroke-width:1px;stroke-linecap:butt;stroke-linejoin:miter;stroke-opacity:1"
       d="m -84.676038,1023.3708 c 3.006155,-0.5083 6.86752,0.3215 6.982679,0.3536 l 22.097088,-22.3623 2.232075,1.2375 -23.975609,22.9809 c -3.556481,-1.5394 -7.319839,-2.2359 -7.336233,-2.2097 z"
       id="path4709"
       inkscape:connector-curvature="0"
       sodipodi:nodetypes="cccccc" />
    <path
       style="fill:#ffffff;fill-rule:evenodd;stroke:none;stroke-width:1px;stroke-linecap:butt;stroke-linejoin:miter;stroke-opacity:1"
       d="m -48.5216,994.09259 c 0.78125,0.3125 1.33825,0.49815 1.33825,0.49815 l 20.584085,-19.99057 -0.922335,-0.88258 z"
       id="path4711"
       inkscape:connector-curvature="0"
       sodipodi:nodetypes="ccccc" />
    <path
       style="fill:#ffffff;fill-rule:evenodd;stroke:none;stroke-width:1px;stroke-linecap:butt;stroke-linejoin:miter;stroke-opacity:1"
       d="m -16.440233,961.98511 c 0,0 -1.679378,-1.90035 -3.137786,-2.38648 -1.458408,-0.48614 -3.384127,-0.41431 -4.242641,0.0442 -1.834746,0.97987 -1.9132,2.17275 -1.752063,2.63464 4.392017,-2.03907 5.97351,-1.52112 9.13249,-0.29236 z"
       id="path4713"
       inkscape:connector-curvature="0"
       sodipodi:nodetypes="csscc" />
    <path
       id="path108"
       d="m 179.51993,1004.8021 c 0,12.4799 -10.15993,22.6398 -22.63984,22.6398 -12.47991,0 -22.55983,-10.1599 -22.55983,-22.6398 0,-12.4799 10.07992,-22.5598 22.55983,-22.5598 12.47991,0 22.63984,10.0799 22.63984,22.5598 z"
       style="fill:none;stroke:#4d4d4d;stroke-width:2.79997921px;stroke-linecap:butt;stroke-linejoin:miter;stroke-miterlimit:4;stroke-dasharray:none;stroke-opacity:1"
       inkscape:connector-curvature="0" />
    <path
       id="path110"
       d="m 170.63999,982.0823 c -3.91997,0.56 -6.79995,3.84 -6.79995,7.7599 0,0.8 0.16,1.6 0.4,2.32 l -26.7998,27.1998 c -4.87997,5.44 0.95999,9.9199 5.27996,5.44 L 170,997.3622 c 0.55999,0.16 1.03999,0.24 1.59998,0.24 4.31997,0 7.75995,-3.52 7.75995,-7.76 0,-1.36 -0.16,-2.56 -0.8,-3.6799 l -0.24,0.24 -2.71998,5.4399 -5.19996,0.56 -2.63998,-4.56 2.79998,-5.3599 z m -34.23975,2.48 -1.19999,1.12 2.31999,4.1599 2.55998,0.96 10.39992,11.9199 c 0.95999,-0.88 1.35999,-1.36 2.31998,-2.24 l -11.51991,-10.6399 -0.4,-2.48 z m 26.9598,22.7998 c -1.75998,1.84 -3.59997,3.52 -5.35996,5.36 l 12.07991,11.9999 c 5.43996,4.8799 9.91993,-0.96 5.51996,-5.28 z m -24.15982,13.4399 c 1.19999,0 2.15999,0.96 2.15999,2.16 0,1.2 -0.96,2.16 -2.15999,2.16 -1.19999,0 -2.15998,-0.96 -2.15998,-2.16 0,-1.2 0.95999,-2.16 2.15998,-2.16 z"
       style="fill:#ffffff;fill-opacity:1;fill-rule:evenodd;stroke:#ffffff;stroke-width:0.8799935px;stroke-linecap:butt;stroke-linejoin:miter;stroke-miterlimit:4;stroke-dasharray:none;stroke-opacity:1"
       inkscape:connector-curvature="0" />
    <g
       id="g4922"
       transform="translate(115,-80)">
      <rect
         style="fill:#b3b3b3;stroke:#ffffff;stroke-width:2.79999995;stroke-linejoin:round;stroke-miterlimit:4;stroke-dasharray:none"
         y="972.36218"
         x="5"
         height="75"
         width="75"
         id="rect4096" />
      <path
         inkscape:connector-curvature="0"
         id="path4915"
         d="m 5,972.3622 15,-15 h 75 l -15,15 H 5"
         style="fill:#b3b3b3;stroke:#ffffff;stroke-width:2.79999995;stroke-linecap:butt;stroke-linejoin:round;stroke-miterlimit:4;stroke-dasharray:none;stroke-opacity:1" />
      <path
         inkscape:connector-curvature="0"
         id="path4917"
         d="m 80,972.3622 15,-15 v 75 l -15,15 z"
         style="fill:#b3b3b3;stroke:#ffffff;stroke-width:2.79999995;stroke-linecap:butt;stroke-linejoin:round;stroke-miterlimit:4;stroke-dasharray:none;stroke-opacity:1" />
    </g>
    <g
       style="fill:#ffffff;fill-opacity:1;stroke:none;stroke-width:6.77663231;stroke-miterlimit:4;stroke-dasharray:none;stroke-opacity:1"
       id="g8050"
       transform="matrix(0.22951762,0,0,0.22951762,22.38223,786.06909)">
      <rect
         style="fill:#ffffff;fill-opacity:1;stroke:none;stroke-width:6.77663231;stroke-linejoin:round;stroke-miterlimit:4;stroke-dasharray:none;stroke-opacity:1"
         y="972.36218"
         x="5"
         height="75"
         width="75"
         id="rect8044" />
      <path
         inkscape:connector-curvature="0"
         id="path8046"
         d="m 5,972.3622 15,-15 h 75 l -15,15 H 5"
         style="fill:#cccccc;fill-opacity:1;stroke:none;stroke-width:6.77663231;stroke-linecap:butt;stroke-linejoin:round;stroke-miterlimit:4;stroke-dasharray:none;stroke-opacity:1" />
      <path
         inkscape:connector-curvature="0"
         id="path8048"
         d="m 80,972.3622 15,-15 v 75 l -15,15 z"
         style="fill:#cccccc;fill-opacity:1;stroke:none;stroke-width:6.77663231;stroke-linecap:butt;stroke-linejoin:round;stroke-miterlimit:4;stroke-dasharray:none;stroke-opacity:1" />
    </g>
    <g
       transform="matrix(0.22951762,0,0,0.22951762,42.38223,786.06909)"
       id="g8258"
       style="fill:#ffffff;fill-opacity:1;stroke:none;stroke-width:6.77663231;stroke-miterlimit:4;stroke-dasharray:none;stroke-opacity:1">
      <rect
         id="rect8252"
         width="75"
         height="75"
         x="5"
         y="972.36218"
         style="fill:#ffffff;fill-opacity:1;stroke:none;stroke-width:6.77663231;stroke-linejoin:round;stroke-miterlimit:4;stroke-dasharray:none;stroke-opacity:1" />
      <path
         style="fill:#cccccc;fill-opacity:1;stroke:none;stroke-width:6.77663231;stroke-linecap:butt;stroke-linejoin:round;stroke-miterlimit:4;stroke-dasharray:none;stroke-opacity:1"
         d="m 5,972.3622 15,-15 h 75 l -15,15 H 5"
         id="path8254"
         inkscape:connector-curvature="0" />
      <path
         style="fill:#cccccc;fill-opacity:1;stroke:none;stroke-width:6.77663231;stroke-linecap:butt;stroke-linejoin:round;stroke-miterlimit:4;stroke-dasharray:none;stroke-opacity:1"
         d="m 80,972.3622 15,-15 v 75 l -15,15 z"
         id="path8256"
         inkscape:connector-curvature="0" />
    </g>
    <g
       transform="matrix(0.22951762,0,0,0.22951762,22.38223,766.06909)"
       id="g8282"
       style="fill:#ffffff;fill-opacity:1;stroke:none;stroke-width:6.77663231;stroke-miterlimit:4;stroke-dasharray:none;stroke-opacity:1">
      <rect
         id="rect8276"
         width="75"
         height="75"
         x="5"
         y="972.36218"
         style="fill:#ffffff;fill-opacity:1;stroke:none;stroke-width:6.77663231;stroke-linejoin:round;stroke-miterlimit:4;stroke-dasharray:none;stroke-opacity:1" />
      <path
         style="fill:#cccccc;fill-opacity:1;stroke:none;stroke-width:6.77663231;stroke-linecap:butt;stroke-linejoin:round;stroke-miterlimit:4;stroke-dasharray:none;stroke-opacity:1"
         d="m 5,972.3622 15,-15 h 75 l -15,15 H 5"
         id="path8278"
         inkscape:connector-curvature="0" />
      <path
         style="fill:#cccccc;fill-opacity:1;stroke:none;stroke-width:6.77663231;stroke-linecap:butt;stroke-linejoin:round;stroke-miterlimit:4;stroke-dasharray:none;stroke-opacity:1"
         d="m 80,972.3622 15,-15 v 75 l -15,15 z"
         id="path8280"
         inkscape:connector-curvature="0" />
    </g>
    <g
       style="fill:#ffffff;fill-opacity:1;stroke:none;stroke-width:6.77663231;stroke-miterlimit:4;stroke-dasharray:none;stroke-opacity:1"
       id="g8290"
       transform="matrix(0.22951762,0,0,0.22951762,42.38223,766.06909)">
      <rect
         style="fill:#ffffff;fill-opacity:1;stroke:none;stroke-width:6.77663231;stroke-linejoin:round;stroke-miterlimit:4;stroke-dasharray:none;stroke-opacity:1"
         y="972.36218"
         x="5"
         height="75"
         width="75"
         id="rect8284" />
      <path
         inkscape:connector-curvature="0"
         id="path8286"
         d="m 5,972.3622 15,-15 h 75 l -15,15 H 5"
         style="fill:#cccccc;fill-opacity:1;stroke:none;stroke-width:6.77663231;stroke-linecap:butt;stroke-linejoin:round;stroke-miterlimit:4;stroke-dasharray:none;stroke-opacity:1" />
      <path
         inkscape:connector-curvature="0"
         id="path8288"
         d="m 80,972.3622 15,-15 v 75 l -15,15 z"
         style="fill:#cccccc;fill-opacity:1;stroke:none;stroke-width:6.77663231;stroke-linecap:butt;stroke-linejoin:round;stroke-miterlimit:4;stroke-dasharray:none;stroke-opacity:1" />
    </g>
    <g
       transform="matrix(0.22951762,0,0,0.22951762,62.38223,766.06909)"
       id="g8298"
       style="fill:#ffffff;fill-opacity:1;stroke:none;stroke-width:6.77663231;stroke-miterlimit:4;stroke-dasharray:none;stroke-opacity:1">
      <rect
         id="rect8292"
         width="75"
         height="75"
         x="5"
         y="972.36218"
         style="fill:#ffffff;fill-opacity:1;stroke:none;stroke-width:6.77663231;stroke-linejoin:round;stroke-miterlimit:4;stroke-dasharray:none;stroke-opacity:1" />
      <path
         style="fill:#cccccc;fill-opacity:1;stroke:none;stroke-width:6.77663231;stroke-linecap:butt;stroke-linejoin:round;stroke-miterlimit:4;stroke-dasharray:none;stroke-opacity:1"
         d="m 5,972.3622 15,-15 h 75 l -15,15 H 5"
         id="path8294"
         inkscape:connector-curvature="0" />
      <path
         style="fill:#cccccc;fill-opacity:1;stroke:none;stroke-width:6.77663231;stroke-linecap:butt;stroke-linejoin:round;stroke-miterlimit:4;stroke-dasharray:none;stroke-opacity:1"
         d="m 80,972.3622 15,-15 v 75 l -15,15 z"
         id="path8296"
         inkscape:connector-curvature="0" />
    </g>
    <g
       style="fill:#ffffff;fill-opacity:1;stroke:none;stroke-width:6.77663231;stroke-miterlimit:4;stroke-dasharray:none;stroke-opacity:1"
       id="g8306"
       transform="matrix(0.22951762,0,0,0.22951762,22.38223,746.06909)">
      <rect
         style="fill:#ffffff;fill-opacity:1;stroke:none;stroke-width:6.77663231;stroke-linejoin:round;stroke-miterlimit:4;stroke-dasharray:none;stroke-opacity:1"
         y="972.36218"
         x="5"
         height="75"
         width="75"
         id="rect8300" />
      <path
         inkscape:connector-curvature="0"
         id="path8302"
         d="m 5,972.3622 15,-15 h 75 l -15,15 H 5"
         style="fill:#cccccc;fill-opacity:1;stroke:none;stroke-width:6.77663231;stroke-linecap:butt;stroke-linejoin:round;stroke-miterlimit:4;stroke-dasharray:none;stroke-opacity:1" />
      <path
         inkscape:connector-curvature="0"
         id="path8304"
         d="m 80,972.3622 15,-15 v 75 l -15,15 z"
         style="fill:#cccccc;fill-opacity:1;stroke:none;stroke-width:6.77663231;stroke-linecap:butt;stroke-linejoin:round;stroke-miterlimit:4;stroke-dasharray:none;stroke-opacity:1" />
    </g>
    <g
       transform="matrix(0.22951762,0,0,0.22951762,42.38223,746.06909)"
       id="g8474"
       style="fill:#ffffff;fill-opacity:1;stroke:none;stroke-width:6.77663231;stroke-miterlimit:4;stroke-dasharray:none;stroke-opacity:1">
      <rect
         id="rect8468"
         width="75"
         height="75"
         x="5"
         y="972.36218"
         style="fill:#999999;fill-opacity:1;stroke:none;stroke-width:6.77663231;stroke-linejoin:round;stroke-miterlimit:4;stroke-dasharray:none;stroke-opacity:1" />
      <path
         style="fill:#666666;fill-opacity:1;stroke:none;stroke-width:6.77663231;stroke-linecap:butt;stroke-linejoin:round;stroke-miterlimit:4;stroke-dasharray:none;stroke-opacity:1"
         d="m 5,972.3622 15,-15 h 75 l -15,15 H 5"
         id="path8470"
         inkscape:connector-curvature="0" />
      <path
         style="fill:#666666;fill-opacity:1;stroke:none;stroke-width:6.77663231;stroke-linecap:butt;stroke-linejoin:round;stroke-miterlimit:4;stroke-dasharray:none;stroke-opacity:1"
         d="m 80,972.3622 15,-15 v 75 l -15,15 z"
         id="path8472"
         inkscape:connector-curvature="0" />
    </g>
    <g
       style="fill:#ffffff;fill-opacity:1;stroke:none;stroke-width:6.77663231;stroke-miterlimit:4;stroke-dasharray:none;stroke-opacity:1"
       id="g8322"
       transform="matrix(0.22951762,0,0,0.22951762,62.38223,746.06909)">
      <rect
         style="fill:#ffffff;fill-opacity:1;stroke:none;stroke-width:6.77663231;stroke-linejoin:round;stroke-miterlimit:4;stroke-dasharray:none;stroke-opacity:1"
         y="972.36218"
         x="5"
         height="75"
         width="75"
         id="rect8316" />
      <path
         inkscape:connector-curvature="0"
         id="path8318"
         d="m 5,972.3622 15,-15 h 75 l -15,15 H 5"
         style="fill:#cccccc;fill-opacity:1;stroke:none;stroke-width:6.77663231;stroke-linecap:butt;stroke-linejoin:round;stroke-miterlimit:4;stroke-dasharray:none;stroke-opacity:1" />
      <path
         inkscape:connector-curvature="0"
         id="path8320"
         d="m 80,972.3622 15,-15 v 75 l -15,15 z"
         style="fill:#cccccc;fill-opacity:1;stroke:none;stroke-width:6.77663231;stroke-linecap:butt;stroke-linejoin:round;stroke-miterlimit:4;stroke-dasharray:none;stroke-opacity:1" />
    </g>
    <g
       transform="matrix(0.22951762,0,0,0.22951762,16.38223,792.06909)"
       id="g8330"
       style="fill:#ffffff;fill-opacity:1;stroke:none;stroke-width:6.77663231;stroke-miterlimit:4;stroke-dasharray:none;stroke-opacity:1">
      <rect
         id="rect8324"
         width="75"
         height="75"
         x="5"
         y="972.36218"
         style="fill:#ffffff;fill-opacity:1;stroke:none;stroke-width:6.77663231;stroke-linejoin:round;stroke-miterlimit:4;stroke-dasharray:none;stroke-opacity:1" />
      <path
         style="fill:#cccccc;fill-opacity:1;stroke:none;stroke-width:6.77663231;stroke-linecap:butt;stroke-linejoin:round;stroke-miterlimit:4;stroke-dasharray:none;stroke-opacity:1"
         d="m 5,972.3622 15,-15 h 75 l -15,15 H 5"
         id="path8326"
         inkscape:connector-curvature="0" />
      <path
         style="fill:#cccccc;fill-opacity:1;stroke:none;stroke-width:6.77663231;stroke-linecap:butt;stroke-linejoin:round;stroke-miterlimit:4;stroke-dasharray:none;stroke-opacity:1"
         d="m 80,972.3622 15,-15 v 75 l -15,15 z"
         id="path8328"
         inkscape:connector-curvature="0" />
    </g>
    <g
       style="fill:#ffffff;fill-opacity:1;stroke:none;stroke-width:6.77663231;stroke-miterlimit:4;stroke-dasharray:none;stroke-opacity:1"
       id="g8338"
       transform="matrix(0.22951762,0,0,0.22951762,36.38223,792.06909)">
      <rect
         style="fill:#ffffff;fill-opacity:1;stroke:none;stroke-width:6.77663231;stroke-linejoin:round;stroke-miterlimit:4;stroke-dasharray:none;stroke-opacity:1"
         y="972.36218"
         x="5"
         height="75"
         width="75"
         id="rect8332" />
      <path
         inkscape:connector-curvature="0"
         id="path8334"
         d="m 5,972.3622 15,-15 h 75 l -15,15 H 5"
         style="fill:#cccccc;fill-opacity:1;stroke:none;stroke-width:6.77663231;stroke-linecap:butt;stroke-linejoin:round;stroke-miterlimit:4;stroke-dasharray:none;stroke-opacity:1" />
      <path
         inkscape:connector-curvature="0"
         id="path8336"
         d="m 80,972.3622 15,-15 v 75 l -15,15 z"
         style="fill:#cccccc;fill-opacity:1;stroke:none;stroke-width:6.77663231;stroke-linecap:butt;stroke-linejoin:round;stroke-miterlimit:4;stroke-dasharray:none;stroke-opacity:1" />
    </g>
    <g
       transform="matrix(0.22951762,0,0,0.22951762,56.38223,792.06909)"
       id="g8346"
       style="fill:#ffffff;fill-opacity:1;stroke:none;stroke-width:6.77663231;stroke-miterlimit:4;stroke-dasharray:none;stroke-opacity:1">
      <rect
         id="rect8340"
         width="75"
         height="75"
         x="5"
         y="972.36218"
         style="fill:#ffffff;fill-opacity:1;stroke:none;stroke-width:6.77663231;stroke-linejoin:round;stroke-miterlimit:4;stroke-dasharray:none;stroke-opacity:1" />
      <path
         style="fill:#cccccc;fill-opacity:1;stroke:none;stroke-width:6.77663231;stroke-linecap:butt;stroke-linejoin:round;stroke-miterlimit:4;stroke-dasharray:none;stroke-opacity:1"
         d="m 5,972.3622 15,-15 h 75 l -15,15 H 5"
         id="path8342"
         inkscape:connector-curvature="0" />
      <path
         style="fill:#cccccc;fill-opacity:1;stroke:none;stroke-width:6.77663231;stroke-linecap:butt;stroke-linejoin:round;stroke-miterlimit:4;stroke-dasharray:none;stroke-opacity:1"
         d="m 80,972.3622 15,-15 v 75 l -15,15 z"
         id="path8344"
         inkscape:connector-curvature="0" />
    </g>
    <g
       style="fill:#ffffff;fill-opacity:1;stroke:none;stroke-width:6.77663231;stroke-miterlimit:4;stroke-dasharray:none;stroke-opacity:1"
       id="g8354"
       transform="matrix(0.22951762,0,0,0.22951762,16.38223,772.06909)">
      <rect
         style="fill:#ffffff;fill-opacity:1;stroke:none;stroke-width:6.77663231;stroke-linejoin:round;stroke-miterlimit:4;stroke-dasharray:none;stroke-opacity:1"
         y="972.36218"
         x="5"
         height="75"
         width="75"
         id="rect8348" />
      <path
         inkscape:connector-curvature="0"
         id="path8350"
         d="m 5,972.3622 15,-15 h 75 l -15,15 H 5"
         style="fill:#cccccc;fill-opacity:1;stroke:none;stroke-width:6.77663231;stroke-linecap:butt;stroke-linejoin:round;stroke-miterlimit:4;stroke-dasharray:none;stroke-opacity:1" />
      <path
         inkscape:connector-curvature="0"
         id="path8352"
         d="m 80,972.3622 15,-15 v 75 l -15,15 z"
         style="fill:#cccccc;fill-opacity:1;stroke:none;stroke-width:6.77663231;stroke-linecap:butt;stroke-linejoin:round;stroke-miterlimit:4;stroke-dasharray:none;stroke-opacity:1" />
    </g>
    <g
       transform="matrix(0.22951762,0,0,0.22951762,36.38223,772.06909)"
       id="g8362"
       style="fill:#ffffff;fill-opacity:1;stroke:none;stroke-width:6.77663231;stroke-miterlimit:4;stroke-dasharray:none;stroke-opacity:1">
      <rect
         id="rect8356"
         width="75"
         height="75"
         x="5"
         y="972.36218"
         style="fill:#ffffff;fill-opacity:1;stroke:none;stroke-width:6.77663231;stroke-linejoin:round;stroke-miterlimit:4;stroke-dasharray:none;stroke-opacity:1" />
      <path
         style="fill:#cccccc;fill-opacity:1;stroke:none;stroke-width:6.77663231;stroke-linecap:butt;stroke-linejoin:round;stroke-miterlimit:4;stroke-dasharray:none;stroke-opacity:1"
         d="m 5,972.3622 15,-15 h 75 l -15,15 H 5"
         id="path8358"
         inkscape:connector-curvature="0" />
      <path
         style="fill:#cccccc;fill-opacity:1;stroke:none;stroke-width:6.77663231;stroke-linecap:butt;stroke-linejoin:round;stroke-miterlimit:4;stroke-dasharray:none;stroke-opacity:1"
         d="m 80,972.3622 15,-15 v 75 l -15,15 z"
         id="path8360"
         inkscape:connector-curvature="0" />
    </g>
    <g
       style="fill:#ffffff;fill-opacity:1;stroke:none;stroke-width:6.77663231;stroke-miterlimit:4;stroke-dasharray:none;stroke-opacity:1"
       id="g8370"
       transform="matrix(0.22951762,0,0,0.22951762,56.38223,772.06909)">
      <rect
         style="fill:#ffffff;fill-opacity:1;stroke:none;stroke-width:6.77663231;stroke-linejoin:round;stroke-miterlimit:4;stroke-dasharray:none;stroke-opacity:1"
         y="972.36218"
         x="5"
         height="75"
         width="75"
         id="rect8364" />
      <path
         inkscape:connector-curvature="0"
         id="path8366"
         d="m 5,972.3622 15,-15 h 75 l -15,15 H 5"
         style="fill:#cccccc;fill-opacity:1;stroke:none;stroke-width:6.77663231;stroke-linecap:butt;stroke-linejoin:round;stroke-miterlimit:4;stroke-dasharray:none;stroke-opacity:1" />
      <path
         inkscape:connector-curvature="0"
         id="path8368"
         d="m 80,972.3622 15,-15 v 75 l -15,15 z"
         style="fill:#cccccc;fill-opacity:1;stroke:none;stroke-width:6.77663231;stroke-linecap:butt;stroke-linejoin:round;stroke-miterlimit:4;stroke-dasharray:none;stroke-opacity:1" />
    </g>
    <g
       transform="matrix(0.22951762,0,0,0.22951762,16.38223,752.06909)"
       id="g8378"
       style="fill:#ffffff;fill-opacity:1;stroke:none;stroke-width:6.77663231;stroke-miterlimit:4;stroke-dasharray:none;stroke-opacity:1">
      <rect
         id="rect8372"
         width="75"
         height="75"
         x="5"
         y="972.36218"
         style="fill:#ffffff;fill-opacity:1;stroke:none;stroke-width:6.77663231;stroke-linejoin:round;stroke-miterlimit:4;stroke-dasharray:none;stroke-opacity:1" />
      <path
         style="fill:#cccccc;fill-opacity:1;stroke:none;stroke-width:6.77663231;stroke-linecap:butt;stroke-linejoin:round;stroke-miterlimit:4;stroke-dasharray:none;stroke-opacity:1"
         d="m 5,972.3622 15,-15 h 75 l -15,15 H 5"
         id="path8374"
         inkscape:connector-curvature="0" />
      <path
         style="fill:#cccccc;fill-opacity:1;stroke:none;stroke-width:6.77663231;stroke-linecap:butt;stroke-linejoin:round;stroke-miterlimit:4;stroke-dasharray:none;stroke-opacity:1"
         d="m 80,972.3622 15,-15 v 75 l -15,15 z"
         id="path8376"
         inkscape:connector-curvature="0" />
    </g>
    <g
       style="fill:#ffffff;fill-opacity:1;stroke:none;stroke-width:6.77663231;stroke-miterlimit:4;stroke-dasharray:none;stroke-opacity:1"
       id="g8386"
       transform="matrix(0.22951762,0,0,0.22951762,36.38223,752.06909)">
      <rect
         style="fill:#ffffff;fill-opacity:1;stroke:none;stroke-width:6.77663231;stroke-linejoin:round;stroke-miterlimit:4;stroke-dasharray:none;stroke-opacity:1"
         y="972.36218"
         x="5"
         height="75"
         width="75"
         id="rect8380" />
      <path
         inkscape:connector-curvature="0"
         id="path8382"
         d="m 5,972.3622 15,-15 h 75 l -15,15 H 5"
         style="fill:#cccccc;fill-opacity:1;stroke:none;stroke-width:6.77663231;stroke-linecap:butt;stroke-linejoin:round;stroke-miterlimit:4;stroke-dasharray:none;stroke-opacity:1" />
      <path
         inkscape:connector-curvature="0"
         id="path8384"
         d="m 80,972.3622 15,-15 v 75 l -15,15 z"
         style="fill:#cccccc;fill-opacity:1;stroke:none;stroke-width:6.77663231;stroke-linecap:butt;stroke-linejoin:round;stroke-miterlimit:4;stroke-dasharray:none;stroke-opacity:1" />
    </g>
    <g
       transform="matrix(0.22951762,0,0,0.22951762,56.38223,752.06909)"
       id="g8394"
       style="fill:#ffffff;fill-opacity:1;stroke:none;stroke-width:6.77663231;stroke-miterlimit:4;stroke-dasharray:none;stroke-opacity:1">
      <rect
         id="rect8388"
         width="75"
         height="75"
         x="5"
         y="972.36218"
         style="fill:#ffffff;fill-opacity:1;stroke:none;stroke-width:6.77663231;stroke-linejoin:round;stroke-miterlimit:4;stroke-dasharray:none;stroke-opacity:1" />
      <path
         style="fill:#cccccc;fill-opacity:1;stroke:none;stroke-width:6.77663231;stroke-linecap:butt;stroke-linejoin:round;stroke-miterlimit:4;stroke-dasharray:none;stroke-opacity:1"
         d="m 5,972.3622 15,-15 h 75 l -15,15 H 5"
         id="path8390"
         inkscape:connector-curvature="0" />
      <path
         style="fill:#cccccc;fill-opacity:1;stroke:none;stroke-width:6.77663231;stroke-linecap:butt;stroke-linejoin:round;stroke-miterlimit:4;stroke-dasharray:none;stroke-opacity:1"
         d="m 80,972.3622 15,-15 v 75 l -15,15 z"
         id="path8392"
         inkscape:connector-curvature="0" />
    </g>
    <g
       style="fill:#ffffff;fill-opacity:1;stroke:none;stroke-width:6.77663231;stroke-miterlimit:4;stroke-dasharray:none;stroke-opacity:1"
       id="g8402"
       transform="matrix(0.22951762,0,0,0.22951762,10.38223,798.06909)">
      <rect
         style="fill:#ffffff;fill-opacity:1;stroke:none;stroke-width:6.77663231;stroke-linejoin:round;stroke-miterlimit:4;stroke-dasharray:none;stroke-opacity:1"
         y="972.36218"
         x="5"
         height="75"
         width="75"
         id="rect8396" />
      <path
         inkscape:connector-curvature="0"
         id="path8398"
         d="m 5,972.3622 15,-15 h 75 l -15,15 H 5"
         style="fill:#cccccc;fill-opacity:1;stroke:none;stroke-width:6.77663231;stroke-linecap:butt;stroke-linejoin:round;stroke-miterlimit:4;stroke-dasharray:none;stroke-opacity:1" />
      <path
         inkscape:connector-curvature="0"
         id="path8400"
         d="m 80,972.3622 15,-15 v 75 l -15,15 z"
         style="fill:#cccccc;fill-opacity:1;stroke:none;stroke-width:6.77663231;stroke-linecap:butt;stroke-linejoin:round;stroke-miterlimit:4;stroke-dasharray:none;stroke-opacity:1" />
    </g>
    <g
       transform="matrix(0.22951762,0,0,0.22951762,30.38223,798.06909)"
       id="g8506"
       style="fill:#ffffff;fill-opacity:1;stroke:none;stroke-width:6.77663231;stroke-miterlimit:4;stroke-dasharray:none;stroke-opacity:1">
      <rect
         id="rect8500"
         width="75"
         height="75"
         x="5"
         y="972.36218"
         style="fill:#999999;fill-opacity:1;stroke:none;stroke-width:6.77663231;stroke-linejoin:round;stroke-miterlimit:4;stroke-dasharray:none;stroke-opacity:1" />
      <path
         style="fill:#666666;fill-opacity:1;stroke:none;stroke-width:6.77663231;stroke-linecap:butt;stroke-linejoin:round;stroke-miterlimit:4;stroke-dasharray:none;stroke-opacity:1"
         d="m 5,972.3622 15,-15 h 75 l -15,15 H 5"
         id="path8502"
         inkscape:connector-curvature="0" />
      <path
         style="fill:#666666;fill-opacity:1;stroke:none;stroke-width:6.77663231;stroke-linecap:butt;stroke-linejoin:round;stroke-miterlimit:4;stroke-dasharray:none;stroke-opacity:1"
         d="m 80,972.3622 15,-15 v 75 l -15,15 z"
         id="path8504"
         inkscape:connector-curvature="0" />
    </g>
    <g
       style="fill:#ffffff;fill-opacity:1;stroke:none;stroke-width:6.77663231;stroke-miterlimit:4;stroke-dasharray:none;stroke-opacity:1"
       id="g8418"
       transform="matrix(0.22951762,0,0,0.22951762,50.38223,798.06909)">
      <rect
         style="fill:#ffffff;fill-opacity:1;stroke:none;stroke-width:6.77663231;stroke-linejoin:round;stroke-miterlimit:4;stroke-dasharray:none;stroke-opacity:1"
         y="972.36218"
         x="5"
         height="75"
         width="75"
         id="rect8412" />
      <path
         inkscape:connector-curvature="0"
         id="path8414"
         d="m 5,972.3622 15,-15 h 75 l -15,15 H 5"
         style="fill:#cccccc;fill-opacity:1;stroke:none;stroke-width:6.77663231;stroke-linecap:butt;stroke-linejoin:round;stroke-miterlimit:4;stroke-dasharray:none;stroke-opacity:1" />
      <path
         inkscape:connector-curvature="0"
         id="path8416"
         d="m 80,972.3622 15,-15 v 75 l -15,15 z"
         style="fill:#cccccc;fill-opacity:1;stroke:none;stroke-width:6.77663231;stroke-linecap:butt;stroke-linejoin:round;stroke-miterlimit:4;stroke-dasharray:none;stroke-opacity:1" />
    </g>
    <g
       transform="matrix(0.22951762,0,0,0.22951762,10.38223,778.06909)"
       id="g8426"
       style="fill:#ffffff;fill-opacity:1;stroke:none;stroke-width:6.77663231;stroke-miterlimit:4;stroke-dasharray:none;stroke-opacity:1">
      <rect
         id="rect8420"
         width="75"
         height="75"
         x="5"
         y="972.36218"
         style="fill:#ffffff;fill-opacity:1;stroke:none;stroke-width:6.77663231;stroke-linejoin:round;stroke-miterlimit:4;stroke-dasharray:none;stroke-opacity:1" />
      <path
         style="fill:#cccccc;fill-opacity:1;stroke:none;stroke-width:6.77663231;stroke-linecap:butt;stroke-linejoin:round;stroke-miterlimit:4;stroke-dasharray:none;stroke-opacity:1"
         d="m 5,972.3622 15,-15 h 75 l -15,15 H 5"
         id="path8422"
         inkscape:connector-curvature="0" />
      <path
         style="fill:#cccccc;fill-opacity:1;stroke:none;stroke-width:6.77663231;stroke-linecap:butt;stroke-linejoin:round;stroke-miterlimit:4;stroke-dasharray:none;stroke-opacity:1"
         d="m 80,972.3622 15,-15 v 75 l -15,15 z"
         id="path8424"
         inkscape:connector-curvature="0" />
    </g>
    <g
       style="fill:#ffffff;fill-opacity:1;stroke:none;stroke-width:6.77663231;stroke-miterlimit:4;stroke-dasharray:none;stroke-opacity:1"
       id="g8434"
       transform="matrix(0.22951762,0,0,0.22951762,30.38223,778.06909)">
      <rect
         style="fill:#ffffff;fill-opacity:1;stroke:none;stroke-width:6.77663231;stroke-linejoin:round;stroke-miterlimit:4;stroke-dasharray:none;stroke-opacity:1"
         y="972.36218"
         x="5"
         height="75"
         width="75"
         id="rect8428" />
      <path
         inkscape:connector-curvature="0"
         id="path8430"
         d="m 5,972.3622 15,-15 h 75 l -15,15 H 5"
         style="fill:#cccccc;fill-opacity:1;stroke:none;stroke-width:6.77663231;stroke-linecap:butt;stroke-linejoin:round;stroke-miterlimit:4;stroke-dasharray:none;stroke-opacity:1" />
      <path
         inkscape:connector-curvature="0"
         id="path8432"
         d="m 80,972.3622 15,-15 v 75 l -15,15 z"
         style="fill:#cccccc;fill-opacity:1;stroke:none;stroke-width:6.77663231;stroke-linecap:butt;stroke-linejoin:round;stroke-miterlimit:4;stroke-dasharray:none;stroke-opacity:1" />
    </g>
    <g
       style="fill:#ffffff;fill-opacity:1;stroke:none;stroke-width:6.77663231;stroke-miterlimit:4;stroke-dasharray:none;stroke-opacity:1"
       id="g8498"
       transform="matrix(0.22951762,0,0,0.22951762,10.38223,758.06909)">
      <rect
         style="fill:#999999;fill-opacity:1;stroke:none;stroke-width:6.77663231;stroke-linejoin:round;stroke-miterlimit:4;stroke-dasharray:none;stroke-opacity:1"
         y="972.36218"
         x="5"
         height="75"
         width="75"
         id="rect8492" />
      <path
         inkscape:connector-curvature="0"
         id="path8494"
         d="m 5,972.3622 15,-15 h 75 l -15,15 H 5"
         style="fill:#666666;fill-opacity:1;stroke:none;stroke-width:6.77663231;stroke-linecap:butt;stroke-linejoin:round;stroke-miterlimit:4;stroke-dasharray:none;stroke-opacity:1" />
      <path
         inkscape:connector-curvature="0"
         id="path8496"
         d="m 80,972.3622 15,-15 v 75 l -15,15 z"
         style="fill:#666666;fill-opacity:1;stroke:none;stroke-width:6.77663231;stroke-linecap:butt;stroke-linejoin:round;stroke-miterlimit:4;stroke-dasharray:none;stroke-opacity:1" />
    </g>
    <g
       transform="matrix(0.22951762,0,0,0.22951762,30.38223,758.06909)"
       id="g8458"
       style="fill:#ffffff;fill-opacity:1;stroke:none;stroke-width:6.77663231;stroke-miterlimit:4;stroke-dasharray:none;stroke-opacity:1">
      <rect
         id="rect8452"
         width="75"
         height="75"
         x="5"
         y="972.36218"
         style="fill:#ffffff;fill-opacity:1;stroke:none;stroke-width:6.77663231;stroke-linejoin:round;stroke-miterlimit:4;stroke-dasharray:none;stroke-opacity:1" />
      <path
         style="fill:#cccccc;fill-opacity:1;stroke:none;stroke-width:6.77663231;stroke-linecap:butt;stroke-linejoin:round;stroke-miterlimit:4;stroke-dasharray:none;stroke-opacity:1"
         d="m 5,972.3622 15,-15 h 75 l -15,15 H 5"
         id="path8454"
         inkscape:connector-curvature="0" />
      <path
         style="fill:#cccccc;fill-opacity:1;stroke:none;stroke-width:6.77663231;stroke-linecap:butt;stroke-linejoin:round;stroke-miterlimit:4;stroke-dasharray:none;stroke-opacity:1"
         d="m 80,972.3622 15,-15 v 75 l -15,15 z"
         id="path8456"
         inkscape:connector-curvature="0" />
    </g>
    <g
       transform="matrix(0.22951762,0,0,0.22951762,50.38223,778.06909)"
       id="g8490"
       style="fill:#ffffff;fill-opacity:1;stroke:none;stroke-width:6.77663231;stroke-miterlimit:4;stroke-dasharray:none;stroke-opacity:1">
      <rect
         id="rect8484"
         width="75"
         height="75"
         x="5"
         y="972.36218"
         style="fill:#999999;fill-opacity:1;stroke:none;stroke-width:6.77663231;stroke-linejoin:round;stroke-miterlimit:4;stroke-dasharray:none;stroke-opacity:1" />
      <path
         style="fill:#666666;fill-opacity:1;stroke:none;stroke-width:6.77663231;stroke-linecap:butt;stroke-linejoin:round;stroke-miterlimit:4;stroke-dasharray:none;stroke-opacity:1"
         d="m 5,972.3622 15,-15 h 75 l -15,15 H 5"
         id="path8486"
         inkscape:connector-curvature="0" />
      <path
         style="fill:#666666;fill-opacity:1;stroke:none;stroke-width:6.77663231;stroke-linecap:butt;stroke-linejoin:round;stroke-miterlimit:4;stroke-dasharray:none;stroke-opacity:1"
         d="m 80,972.3622 15,-15 v 75 l -15,15 z"
         id="path8488"
         inkscape:connector-curvature="0" />
    </g>
    <g
       style="fill:#ffffff;fill-opacity:1;stroke:none;stroke-width:6.77663231;stroke-miterlimit:4;stroke-dasharray:none;stroke-opacity:1"
       id="g8466"
       transform="matrix(0.22951762,0,0,0.22951762,50.38223,758.06909)">
      <rect
         style="fill:#ffffff;fill-opacity:1;stroke:none;stroke-width:6.77663231;stroke-linejoin:round;stroke-miterlimit:4;stroke-dasharray:none;stroke-opacity:1"
         y="972.36218"
         x="5"
         height="75"
         width="75"
         id="rect8460" />
      <path
         inkscape:connector-curvature="0"
         id="path8462"
         d="m 5,972.3622 15,-15 h 75 l -15,15 H 5"
         style="fill:#cccccc;fill-opacity:1;stroke:none;stroke-width:6.77663231;stroke-linecap:butt;stroke-linejoin:round;stroke-miterlimit:4;stroke-dasharray:none;stroke-opacity:1" />
      <path
         inkscape:connector-curvature="0"
         id="path8464"
         d="m 80,972.3622 15,-15 v 75 l -15,15 z"
         style="fill:#cccccc;fill-opacity:1;stroke:none;stroke-width:6.77663231;stroke-linecap:butt;stroke-linejoin:round;stroke-miterlimit:4;stroke-dasharray:none;stroke-opacity:1" />
    </g>
    <g
       id="g8546"
       transform="translate(-0.23529407,3.5294118)">
      <circle
         r="20.352942"
         cy="1098.8328"
         cx="-11.882354"
         id="path8530"
         style="fill:#808080;fill-opacity:1;stroke:#ffffff;stroke-width:2;stroke-linejoin:round;stroke-miterlimit:4;stroke-dasharray:none;stroke-opacity:1" />
      <ellipse
         ry="4.352941"
         rx="4.9411764"
         cy="1088.48"
         cx="-20.705883"
         id="path8532"
         style="fill:#b3b3b3;fill-opacity:1;stroke:none;stroke-width:2;stroke-linejoin:round;stroke-miterlimit:4;stroke-dasharray:none;stroke-opacity:1" />
    </g>
    <g
       transform="matrix(0.33163273,0,0,0.33163273,-12.135289,786.06572)"
       id="g8542"
       style="fill:#ffffff;fill-opacity:1;stroke:#ffffff;stroke-width:6.77663231;stroke-miterlimit:4;stroke-dasharray:none;stroke-opacity:1">
      <rect
         id="rect8536"
         width="75"
         height="75"
         x="5"
         y="972.36218"
         style="fill:#999999;fill-opacity:1;stroke:#ffffff;stroke-width:6.77663231;stroke-linejoin:round;stroke-miterlimit:4;stroke-dasharray:none;stroke-opacity:1" />
      <path
         style="fill:#999999;fill-opacity:1;stroke:#ffffff;stroke-width:6.77663231;stroke-linecap:butt;stroke-linejoin:round;stroke-miterlimit:4;stroke-dasharray:none;stroke-opacity:1"
         d="m 5,972.3622 15,-15 h 75 l -15,15 H 5"
         id="path8538"
         inkscape:connector-curvature="0" />
      <path
         style="fill:#666666;fill-opacity:1;stroke:#ffffff;stroke-width:6.77663231;stroke-linecap:butt;stroke-linejoin:round;stroke-miterlimit:4;stroke-dasharray:none;stroke-opacity:1"
         d="m 80,972.3622 15,-15 v 75 l -15,15 z"
         id="path8540"
         inkscape:connector-curvature="0" />
    </g>
  </g>
</svg>
