<?xml version="1.0" encoding="UTF-8" standalone="no"?>
<!-- Created with Inkscape (http://www.inkscape.org/) -->

<svg
   xmlns:dc="http://purl.org/dc/elements/1.1/"
   xmlns:cc="http://creativecommons.org/ns#"
   xmlns:rdf="http://www.w3.org/1999/02/22-rdf-syntax-ns#"
   xmlns:svg="http://www.w3.org/2000/svg"
   xmlns="http://www.w3.org/2000/svg"
   xmlns:sodipodi="http://sodipodi.sourceforge.net/DTD/sodipodi-0.dtd"
   xmlns:inkscape="http://www.inkscape.org/namespaces/inkscape"
   width="100"
   height="100"
   id="svg4293"
   version="1.1"
   inkscape:version="0.91 r13725"
   sodipodi:docname="IconLiver.svg"
   inkscape:export-filename="C:\Users\pfeiffer\Desktop\IMHOTEP\imhotep_unity\Assets\Core\UI\Images\Icons\IconLiver.png"
   inkscape:export-xdpi="256"
   inkscape:export-ydpi="256">
  <defs
     id="defs4295">
    <filter
       style="color-interpolation-filters:sRGB;"
       inkscape:label="Drop Shadow"
       id="filter5932">
      <feFlood
         flood-opacity="0.498039"
         flood-color="rgb(0,0,0)"
         result="flood"
         id="feFlood5934" />
      <feComposite
         in="flood"
         in2="SourceGraphic"
         operator="in"
         result="composite1"
         id="feComposite5936" />
      <feGaussianBlur
         in="composite1"
         stdDeviation="2"
         result="blur"
         id="feGaussianBlur5938" />
      <feOffset
         dx="3"
         dy="3"
         result="offset"
         id="feOffset5940" />
      <feComposite
         in="SourceGraphic"
         in2="offset"
         operator="over"
         result="composite2"
         id="feComposite5942" />
    </filter>
    <filter
       inkscape:collect="always"
       style="color-interpolation-filters:sRGB"
       id="filter6575"
       x="-0.080936172"
       width="1.1618723"
       y="-0.11795348"
       height="1.235907">
      <feGaussianBlur
         inkscape:collect="always"
         stdDeviation="2.833124"
         id="feGaussianBlur6577" />
    </filter>
  </defs>
  <sodipodi:namedview
     id="base"
     pagecolor="#c09082"
     bordercolor="#666666"
     borderopacity="1.0"
     inkscape:pageopacity="1"
     inkscape:pageshadow="2"
     inkscape:zoom="3.7434196"
     inkscape:cx="30.838054"
     inkscape:cy="24.585868"
     inkscape:document-units="px"
     inkscape:current-layer="layer1"
     showgrid="true"
     inkscape:snap-global="false"
     inkscape:window-width="1600"
     inkscape:window-height="1137"
     inkscape:window-x="-8"
     inkscape:window-y="-8"
     inkscape:window-maximized="1"
     borderlayer="false"
     inkscape:showpageshadow="true"
     showborder="true"
     showguides="true"
     inkscape:guide-bbox="true">
    <inkscape:grid
       type="xygrid"
       id="grid4301"
       empspacing="10"
       visible="true"
       enabled="true"
       snapvisiblegridlinesonly="true"
       spacingx="5px"
       spacingy="5px" />
  </sodipodi:namedview>
  <metadata
     id="metadata4298">
    <rdf:RDF>
      <cc:Work
         rdf:about="">
        <dc:format>image/svg+xml</dc:format>
        <dc:type
           rdf:resource="http://purl.org/dc/dcmitype/StillImage" />
        <dc:title></dc:title>
      </cc:Work>
    </rdf:RDF>
  </metadata>
  <g
     inkscape:groupmode="layer"
     id="layer2"
     inkscape:label="Background"
     style="display:none"
     transform="translate(0,-260)">
    <rect
       style="opacity:0.9;fill:#1a1a1a;fill-opacity:0.88235294;fill-rule:nonzero;stroke:#a42e00;stroke-width:3;stroke-linecap:round;stroke-linejoin:round;stroke-miterlimit:4;stroke-dasharray:none;stroke-dashoffset:0;stroke-opacity:1"
       id="rect3771"
       width="585"
       height="540"
       x="-90"
       y="-90"
       sodipodi:insensitive="true" />
  </g>
  <g
     inkscape:label="Layer 1"
     inkscape:groupmode="layer"
     id="layer1"
     transform="translate(0,-952.3622)">
    <path
       sodipodi:nodetypes="sccccssscsssssssscsscs"
       inkscape:connector-curvature="0"
       id="path6537"
       d="M 27.053439,974.31302 C 7.8823781,972.50634 6.8455834,999.5669 10.913491,1017.5072 c 0.408361,1.7952 -3.7269413,13.9261 5.367204,14.3654 11.61396,-4.3889 14.265657,-5.1201 23.192742,-15.1814 2.350561,-1.1744 9.768854,-2.5103 10.426246,-3.381 1.055742,-1.2481 1.703827,-13.0168 1.071496,-15.80303 -0.780872,-3.44069 -0.183111,-3.44998 0.708782,-6.09026 0.891894,-2.64028 2.093485,-4.91642 2.392692,-8.62154 0.222556,-2.75593 -0.349982,-4.09291 -1.457394,-4.61143 -1.131043,-0.34593 -15.010872,-0.95032 -21.506336,-3.01646 -1.427262,-0.45401 -2.777414,-0.73401 -4.055484,-0.85446 z m 43.509366,5.62413 c -2.77343,0.19301 -8.568868,-0.47491 -11.975868,-1.07573 -1.28688,-0.22694 -2.322375,-0.12282 -2.69046,0.16817 -0.450016,0.35576 -0.193875,3.85385 -1.057707,6.879 -1.419443,4.97092 -0.908672,4.37882 -2.192112,7.66558 -1.283439,3.28676 -0.32547,4.04259 -0.151512,6.09073 0.158448,1.8657 0.286422,11.3433 1.397455,12.4721 0.655499,0.7216 3.788625,-0.7052 4.930313,-1.0454 10.003133,-2.9804 22.617637,-8.8639 25.580765,-14.75254 2.375205,-4.72023 9.360851,-4.93065 8.516686,-9.96545 -4.989409,-7.23985 -12.237627,-7.1407 -22.35756,-6.43646 z"
       style="opacity:0.5;fill:#000000;fill-opacity:1;fill-rule:evenodd;stroke:none;stroke-width:0.30000001;stroke-linecap:butt;stroke-linejoin:miter;stroke-miterlimit:4;stroke-dasharray:none;stroke-opacity:1;filter:url(#filter6575)" />
    <path
       style="fill:#e6e6e6;fill-opacity:1;fill-rule:evenodd;stroke:none;stroke-width:0.30000001;stroke-linecap:butt;stroke-linejoin:miter;stroke-miterlimit:4;stroke-dasharray:none;stroke-opacity:1;"
       d="M 25.053439,972.31302 C 5.8823781,970.50634 4.8455834,997.56693 8.9134911,1015.5072 c 0.408361,1.7952 -3.7269414,13.9261 5.3672039,14.3654 11.61396,-4.3889 14.265657,-5.1201 23.192742,-15.1814 2.350561,-1.1744 9.768854,-2.5103 10.426246,-3.381 1.055742,-1.2481 1.703827,-13.01682 1.071496,-15.80303 -0.780872,-3.44069 -0.183111,-3.44998 0.708782,-6.09026 0.891894,-2.64028 2.093485,-4.91642 2.392692,-8.62154 0.222556,-2.75593 -0.349982,-4.09291 -1.457394,-4.61143 -1.131043,-0.34593 -15.010872,-0.95032 -21.506336,-3.01646 -1.427262,-0.45401 -2.777414,-0.73401 -4.055484,-0.85446 z m 43.509366,5.62413 c -2.77343,0.19301 -8.568868,-0.47491 -11.975868,-1.07573 -1.28688,-0.22694 -2.322375,-0.12282 -2.69046,0.16817 -0.450016,0.35576 -0.193875,3.85385 -1.057707,6.879 -1.419443,4.97092 -0.908672,4.37882 -2.192112,7.66558 -1.283439,3.28676 -0.32547,4.04259 -0.151512,6.09074 0.158448,1.86572 0.286422,11.34329 1.397455,12.47209 0.655499,0.7216 3.788625,-0.7052 4.930313,-1.0454 10.003133,-2.9804 22.617637,-8.8639 25.580765,-14.75254 2.375205,-4.72023 9.360851,-4.93065 8.516686,-9.96545 -4.989409,-7.23985 -12.237627,-7.1407 -22.35756,-6.43646 z"
       id="path4347"
       inkscape:connector-curvature="0"
       sodipodi:nodetypes="sccccssscsssssssscsscs" />
  </g>
</svg>
