<?xml version="1.0" encoding="UTF-8" standalone="no"?>
<!-- Created with Inkscape (http://www.inkscape.org/) -->

<svg
   xmlns:dc="http://purl.org/dc/elements/1.1/"
   xmlns:cc="http://creativecommons.org/ns#"
   xmlns:rdf="http://www.w3.org/1999/02/22-rdf-syntax-ns#"
   xmlns:svg="http://www.w3.org/2000/svg"
   xmlns="http://www.w3.org/2000/svg"
   xmlns:sodipodi="http://sodipodi.sourceforge.net/DTD/sodipodi-0.dtd"
   xmlns:inkscape="http://www.inkscape.org/namespaces/inkscape"
   width="100"
   height="100"
   id="svg4293"
   version="1.1"
   inkscape:version="0.91 r13725"
   sodipodi:docname="PatientIconLiver.svg"
   inkscape:export-filename="/home/micha/Projects/IMHOTEP/IMHOTEPUnity/raw/UI/ToolIcomDicom.png"
   inkscape:export-xdpi="256"
   inkscape:export-ydpi="256">
  <defs
     id="defs4295">
    <clipPath
       clipPathUnits="userSpaceOnUse"
       id="clipPath4788">
      <path
         style="fill:#ffffff;fill-opacity:1;fill-rule:nonzero;stroke:#ffffff;stroke-width:3.39546537;stroke-linecap:round;stroke-linejoin:round;stroke-miterlimit:4;stroke-dasharray:none;stroke-dashoffset:0;stroke-opacity:1"
         d="m 114.01888,862.1734 -39.124215,6.7345 -2.565512,35.59663 63.496667,-7.69657 -4.81036,-32.38972 z"
         id="path4790"
         inkscape:connector-curvature="0" />
    </clipPath>
    <clipPath
       clipPathUnits="userSpaceOnUse"
       id="clipPath3869">
      <path
         style="opacity:0.9;fill:none;stroke:#8d3800;stroke-width:3;stroke-linecap:round;stroke-linejoin:round;stroke-miterlimit:4;stroke-dasharray:none;stroke-dashoffset:0;stroke-opacity:1"
         d="m 45.334386,1005.0444 0.566679,-6.13905 -5.005671,-3.30563 0.944466,-8.02796 1.983379,-7.0835 18.133755,3.87231 0.28334,24.46163 z"
         id="path3871"
         inkscape:connector-curvature="0" />
    </clipPath>
  </defs>
  <sodipodi:namedview
     id="base"
     pagecolor="#001243"
     bordercolor="#666666"
     borderopacity="1.0"
     inkscape:pageopacity="0"
     inkscape:pageshadow="2"
     inkscape:zoom="7.4868392"
     inkscape:cx="39.609777"
     inkscape:cy="55.629988"
     inkscape:document-units="px"
     inkscape:current-layer="layer1"
     showgrid="true"
     inkscape:snap-global="false"
     inkscape:window-width="1920"
     inkscape:window-height="1022"
     inkscape:window-x="0"
     inkscape:window-y="0"
     inkscape:window-maximized="1"
     borderlayer="false"
     inkscape:showpageshadow="true"
     showborder="true"
     showguides="false">
    <inkscape:grid
       type="xygrid"
       id="grid4301"
       empspacing="10"
       visible="true"
       enabled="true"
       snapvisiblegridlinesonly="true"
       spacingx="5px"
       spacingy="5px" />
  </sodipodi:namedview>
  <metadata
     id="metadata4298">
    <rdf:RDF>
      <cc:Work
         rdf:about="">
        <dc:format>image/svg+xml</dc:format>
        <dc:type
           rdf:resource="http://purl.org/dc/dcmitype/StillImage" />
        <dc:title />
      </cc:Work>
    </rdf:RDF>
  </metadata>
  <g
     inkscape:groupmode="layer"
     id="layer2"
     inkscape:label="Background"
     style="display:none"
     transform="translate(0,-260)">
    <rect
       style="opacity:0.9;fill:#1a1a1a;fill-opacity:0.88235294;fill-rule:nonzero;stroke:#a42e00;stroke-width:3;stroke-linecap:round;stroke-linejoin:round;stroke-miterlimit:4;stroke-dasharray:none;stroke-dashoffset:0;stroke-opacity:1"
       id="rect3771"
       width="585"
       height="540"
       x="-90"
       y="-90"
       sodipodi:insensitive="true" />
  </g>
  <g
     inkscape:label="Layer 1"
     inkscape:groupmode="layer"
     id="layer1"
     transform="translate(0,-952.3622)">
    <path
       style="fill:#800000;fill-rule:evenodd;stroke:none;stroke-width:0.30000001;stroke-linecap:butt;stroke-linejoin:miter;stroke-miterlimit:4;stroke-dasharray:none;stroke-opacity:1"
       d="m 23.726203,974.55413 c -15.0184248,0.0537 -16.1713902,9.88964 -20.3684882,18.55346 -5.2600411,10.85801 2.7731338,34.18701 3.389118,36.03501 0.6160188,1.8481 3.0794357,7.084 13.2434582,6.776 4.956654,-0.1503 5.527427,-3.9257 8.624799,-5.2357 20.879083,-8.628 26.224723,-11.3885 30.529087,-21.3278 10.77585,2.2526 12.939724,-3.4221 19.36639,-5.7762 1.937879,-2.9286 9.548891,-5.54415 11.396895,-5.54415 1.848004,0 8.316288,-4.31147 8.316288,-6.46747 -5.252098,-23.16741 -27.75635,-10.36045 -67.16309,-16.40513 -2.760772,-0.42349 -5.188967,-0.6157 -7.334457,-0.60802 z"
       id="path4347"
       inkscape:connector-curvature="0"
       sodipodi:nodetypes="sssscccscss" />
    <path
       style="fill:#c83737;fill-rule:evenodd;stroke:none;stroke-width:1px;stroke-linecap:butt;stroke-linejoin:miter;stroke-opacity:1"
       d="m 8.2647865,1009.1521 c -1.2266233,-0.5056 -0.7769742,-11.53664 1.4156305,-16.66089 2.134504,-4.98847 5.752826,-10.15595 10.780574,-12.19621 6.206613,-2.51864 13.33997,1.38149 20.036621,1.52453 6.553955,0.13998 12.438392,-0.9729 19.655491,-0.65337 2.392278,0.10596 7.756509,1.26402 7.350391,3.32128 -6.149758,-0.51282 -23.727427,1.14294 -30.054932,2.34125 -5.636722,1.04338 -11.896549,0.79255 -16.769781,3.81131 -3.26754,2.02411 -5.164488,5.73081 -7.295944,8.92936 -2.008134,3.01354 -3.167753,10.38674 -5.1180505,9.58274 z"
       id="path4151"
       inkscape:connector-curvature="0"
       sodipodi:nodetypes="saaasccaas" />
    <path
       style="fill:#808080;fill-rule:evenodd;stroke:none;stroke-width:1px;stroke-linecap:butt;stroke-linejoin:miter;stroke-opacity:1"
       d="m 45.947294,975.74547 c 5.209141,0 5.87698,0.0941 5.87698,0.0941 -0.674643,-4.64036 -0.450348,-7.57892 -0.534271,-12.41835 l -4.808438,-0.28223 c -0.735082,5.16141 -0.49194,8.4647 -0.534271,12.6065 z"
       id="path4153"
       inkscape:connector-curvature="0"
       sodipodi:nodetypes="ccccc" />
    <path
       style="fill:#808080;fill-opacity:1;fill-rule:evenodd;stroke:none;stroke-width:1px;stroke-linecap:butt;stroke-linejoin:miter;stroke-opacity:1"
       d="m 53.594046,975.76899 c 1.501284,0.15109 5.061611,0.0953 5.175749,0.0471 -0.102391,-3.86357 -0.272434,-7.63541 -0.233744,-11.94795 l -4.67487,-0.37631 c -0.34131,5.39345 0.466574,7.89605 -0.267135,12.27724 z"
       id="path4155"
       inkscape:connector-curvature="0"
       sodipodi:nodetypes="cccccc" />
  </g>
</svg>
