<?xml version="1.0" encoding="UTF-8" standalone="no"?>
<!-- Created with Inkscape (http://www.inkscape.org/) -->

<svg
   xmlns:dc="http://purl.org/dc/elements/1.1/"
   xmlns:cc="http://creativecommons.org/ns#"
   xmlns:rdf="http://www.w3.org/1999/02/22-rdf-syntax-ns#"
   xmlns:svg="http://www.w3.org/2000/svg"
   xmlns="http://www.w3.org/2000/svg"
   xmlns:sodipodi="http://sodipodi.sourceforge.net/DTD/sodipodi-0.dtd"
   xmlns:inkscape="http://www.inkscape.org/namespaces/inkscape"
   width="100"
   height="100"
   id="svg4293"
   version="1.1"
   inkscape:version="0.91 r13725"
   sodipodi:docname="PatientIconLiver.svg"
   inkscape:export-filename="/home/micha/Projects/IMHOTEP/IMHOTEPUnity/raw/UI/ToolIcomDicom.png"
   inkscape:export-xdpi="256"
   inkscape:export-ydpi="256">
  <defs
     id="defs4295">
    <clipPath
       clipPathUnits="userSpaceOnUse"
       id="clipPath4788">
      <path
         style="fill:#ffffff;fill-opacity:1;fill-rule:nonzero;stroke:#ffffff;stroke-width:3.39546537;stroke-linecap:round;stroke-linejoin:round;stroke-miterlimit:4;stroke-dasharray:none;stroke-dashoffset:0;stroke-opacity:1"
         d="m 114.01888,862.1734 -39.124215,6.7345 -2.565512,35.59663 63.496667,-7.69657 -4.81036,-32.38972 z"
         id="path4790"
         inkscape:connector-curvature="0" />
    </clipPath>
    <clipPath
       clipPathUnits="userSpaceOnUse"
       id="clipPath3869">
      <path
         style="opacity:0.9;fill:none;stroke:#8d3800;stroke-width:3;stroke-linecap:round;stroke-linejoin:round;stroke-miterlimit:4;stroke-dasharray:none;stroke-dashoffset:0;stroke-opacity:1"
         d="m 45.334386,1005.0444 0.566679,-6.13905 -5.005671,-3.30563 0.944466,-8.02796 1.983379,-7.0835 18.133755,3.87231 0.28334,24.46163 z"
         id="path3871"
         inkscape:connector-curvature="0" />
    </clipPath>
  </defs>
  <sodipodi:namedview
     id="base"
     pagecolor="#001243"
     bordercolor="#666666"
     borderopacity="1.0"
     inkscape:pageopacity="0"
     inkscape:pageshadow="2"
     inkscape:zoom="3.7434196"
     inkscape:cx="24.859663"
     inkscape:cy="49.317027"
     inkscape:document-units="px"
     inkscape:current-layer="layer1"
     showgrid="true"
     inkscape:snap-global="false"
     inkscape:window-width="1920"
     inkscape:window-height="1022"
     inkscape:window-x="0"
     inkscape:window-y="0"
     inkscape:window-maximized="1"
     borderlayer="false"
     inkscape:showpageshadow="true"
     showborder="true"
     showguides="false">
    <inkscape:grid
       type="xygrid"
       id="grid4301"
       empspacing="10"
       visible="true"
       enabled="true"
       snapvisiblegridlinesonly="true"
       spacingx="5px"
       spacingy="5px" />
  </sodipodi:namedview>
  <metadata
     id="metadata4298">
    <rdf:RDF>
      <cc:Work
         rdf:about="">
        <dc:format>image/svg+xml</dc:format>
        <dc:type
           rdf:resource="http://purl.org/dc/dcmitype/StillImage" />
        <dc:title></dc:title>
      </cc:Work>
    </rdf:RDF>
  </metadata>
  <g
     inkscape:groupmode="layer"
     id="layer2"
     inkscape:label="Background"
     style="display:none"
     transform="translate(0,-260)">
    <rect
       style="opacity:0.9;fill:#1a1a1a;fill-opacity:0.88235294;fill-rule:nonzero;stroke:#a42e00;stroke-width:3;stroke-linecap:round;stroke-linejoin:round;stroke-miterlimit:4;stroke-dasharray:none;stroke-dashoffset:0;stroke-opacity:1"
       id="rect3771"
       width="585"
       height="540"
       x="-90"
       y="-90"
       sodipodi:insensitive="true" />
  </g>
  <g
     inkscape:label="Layer 1"
     inkscape:groupmode="layer"
     id="layer1"
     transform="translate(0,-952.3622)">
    <path
       style="fill:#ffffff;fill-rule:evenodd;stroke:#ffffff;stroke-width:0.30000001;stroke-linecap:butt;stroke-linejoin:miter;stroke-miterlimit:4;stroke-dasharray:none;stroke-opacity:1"
       d="m 27.199219,26.263672 c -13.025794,0.0466 -14.025785,8.577487 -17.6660159,16.091797 -4.5621437,9.41735 2.4051969,29.651106 2.9394529,31.253906 0.534286,1.6029 2.670859,6.144153 11.486328,5.876953 4.29901,-0.1303 4.794053,-3.404816 7.480469,-4.541016 18.108865,-7.4832 22.745251,-9.877446 26.478516,-18.498046 9.34612,1.9537 11.222893,-2.968066 16.796875,-5.009766 1.680763,-2.5401 8.281953,-4.808594 9.884765,-4.808594 1.602813,0 7.212891,-3.739435 7.212891,-5.609375 -4.555255,-20.09358 -24.073663,-8.985835 -58.251953,-14.228515 -2.394475,-0.3673 -4.5005,-0.534004 -6.361328,-0.527344 z m 24.130859,2.787109 c 0.313826,-0.0151 0.719902,0.215082 0.904297,0.425781 1.407573,2.94552 2.321398,6.134472 2.615234,9.388672 0.04642,0.0174 0.05899,0.02918 0.109375,0.04687 0.740144,0.25959 1.877341,0.04921 3.445313,0.0039 4.164896,-0.12068 9.427487,-1.57346 14.238281,-2.91211 2.405397,-0.66933 4.733585,-0.959304 6.650391,-1.333984 0.882523,-0.12995 1.912473,-0.324452 2.919922,-0.326172 0.604469,-0.001 1.200552,0.0671 1.751953,0.259766 1.729488,0.60428 3.469368,2.737365 4.251953,3.484375 0.782586,0.74702 1.103515,1.373047 1.103515,1.373047 0.298275,0.59639 -0.596383,1.043715 -0.894531,0.447265 0,0 -0.21373,-0.442206 -0.90039,-1.097656 -0.68666,-0.65545 -1.824299,-1.484396 -3.628907,-2.128906 -0.738213,-0.26364 -2.221082,-0.189172 -4.078125,0.173828 -1.857044,0.363 -4.10237,0.979637 -6.505859,1.648437 -4.806978,1.33759 -10.231478,3.125043 -14.611328,3.251953 -1.643728,0.0476 -2.856222,0.02649 -3.703125,-0.248047 -0.185255,6.5935 2.992187,13.513672 2.992187,13.513672 0.572685,1.211073 -1.250152,2.063565 -1.8125,0.847657 0,0 -3.03225,-6.376027 -3.183593,-13.222657 -0.331963,0.32729 -0.643514,0.633199 -1.208985,1.167969 -2.006918,1.89792 -5.538249,4.049931 -11.308594,4.644531 -3.235523,0.3333 -7.67371,2.213169 -13.246093,5.230469 -5.356119,2.9002 -10.625173,7.834169 -13.507813,13.730469 -0.292893,0.5991 -1.191488,0.159547 -0.898437,-0.439453 1.792229,-6.9262 7.921667,-11.985791 13.208984,-15.275391 5.287313,-3.2896 10.631084,-5.310615 14.072266,-5.978516 5.716142,-1.10945 8.276709,-2.361445 10.125,-4.109374 1.505909,-1.42413 2.310185,-2.300702 2.621093,-2.644532 -0.141078,-1.40798 -0.386766,-2.806655 -0.761718,-4.171875 -0.349171,-1.46197 -0.66719,-3.055339 -1.185547,-4.568359 0.05874,-0.27466 -0.01372,-0.557794 0.02734,-0.833984 0.05431,-0.242161 0.210144,-0.338607 0.398437,-0.347657 z m 2.964844,26.433594 c 0.134061,-0.01 0.223089,0.129922 0.259766,0.482422 -0.107851,1.4021 -0.959783,2.566634 -2.175782,3.115234 -1.215999,0.5483 -2.717909,0.648897 -4.52539,0.529297 -3.614963,-0.2392 -8.510436,-1.445206 -14.419922,-3.066406 -1.012152,-0.3172 -0.0073,-0.914188 0.433594,-0.867188 4.557206,0.4889 10.83625,1.7203 14.11914,1.9375 1.641447,0.1087 3.321559,0.05103 4.019531,-0.263672 1.073518,-0.5543 1.886882,-1.849087 2.289063,-1.867187 z m -26.884766,0.855469 c 0.259265,0.0076 0.519763,0.03018 0.779297,0.06836 0.813312,0.1196 1.440627,0.544206 1.972656,0.941406 0.532029,0.3971 0.993228,0.779622 1.423829,0.982422 2.419619,1.1398 4.818312,2.31236 7.298828,2.69336 2.002459,0.3076 4.171639,-0.11836 6.423828,-0.31836 1.40571,-0.1248 3.291058,-0.269937 5.009765,-0.523437 1.718708,-0.2534 3.299001,-0.680178 3.871094,-1.080078 l 1.019531,1.078125 c -2.455176,3.1267 -5.106408,3.212715 -6.982422,3.603515 -3.537567,0.9633 -6.417038,2.543125 -9.960937,3.265625 -5.072739,1.0342 -10.852886,3.243947 -16.146484,1.310547 -1.43208,-0.5231 -2.611831,-1.720872 -3.142579,-3.138672 -0.522216,-1.3949 -0.671058,-3.283306 -0.110208,-4.545407 0.626913,-1.410799 2.00651,-2.630154 3.265065,-3.350654 1.487088,-0.851462 3.463881,-1.039674 5.278737,-0.986752 z m -0.04102,1.501953 c -1.427485,-0.03353 -3.174567,0.03028 -4.493581,0.785579 -1.043399,0.5973 -1.998971,1.504379 -2.449219,2.517579 -0.428606,0.9645 -0.37754,2.665411 -0.04548,3.552311 0.36119,0.9648 1.296405,1.906059 2.253907,2.255859 4.597669,1.6792 10.084711,-0.301694 15.330078,-1.371094 3.271945,-0.6671 6.134695,-2.22774 9.867187,-3.24414 l 0.01953,-0.0098 0.02148,0 c 1.130018,-0.2392 2.188523,-0.341037 3.257812,-0.773437 -0.205901,0.0333 -0.383047,0.08228 -0.59375,0.113281 -1.792698,0.2644 -3.706057,0.409803 -5.095703,0.533203 -2.138361,0.19 -4.430889,0.66824 -6.785156,0.30664 -2.787662,-0.428199 -5.30879,-1.686759 -7.710938,-2.818359 -0.681451,-0.321 -1.203431,-0.779719 -1.68164,-1.136719 -0.47821,-0.357 -0.888149,-0.601156 -1.291016,-0.660156 -0.197472,-0.02904 -0.399589,-0.04599 -0.603515,-0.05078 z"
       transform="translate(0,952.3622)"
       id="path4347"
       inkscape:connector-curvature="0"
       sodipodi:nodetypes="sssscccscsscccccscccsccscsscccccscsscsssccccccscscccccssccccccccsccscsscsccsccccccccscscc" />
    <path
       style="fill:#cccccc;fill-rule:evenodd;stroke:none;stroke-width:1px;stroke-linecap:butt;stroke-linejoin:miter;stroke-opacity:1"
       d="m 63.833607,16.864076 c -2.2381,0.065 -3.080807,0.619903 -5.318907,0.0785 0.253104,1.640149 -0.250521,3.034568 -0.0258,9.89887 2.097698,-0.009 3.487321,0.01443 5.407581,-0.01528 -0.05686,-7.109137 -0.153534,-9.036241 -0.06287,-9.96209 z M 58.701172,58.0625 c -0.02809,0.05893 -0.05767,0.113374 -0.08594,0.171875 0.151112,8.447147 -0.555657,16.757337 0.356166,16.836013 l 5.567662,0.480396 C 64.63869,74.193584 64.200174,70.52 64.19531,65.7168 c -0.0022,-2.148235 -0.02774,-5.010399 -0.04297,-7.558594 -1.566192,0.23072 -3.359717,0.236363 -5.451168,-0.09571 z"
       transform="translate(0,952.3622)"
       id="path4363"
       inkscape:connector-curvature="0"
       sodipodi:nodetypes="cccccccscccc" />
    <path
       style="fill:#cccccc;fill-rule:evenodd;stroke:none;stroke-width:1px;stroke-linecap:butt;stroke-linejoin:miter;stroke-opacity:1"
       d="m 50.241368,16.968724 c 0,0 0.188091,5.827244 0.342616,9.835964 2.229502,0.06904 4.364141,0.09202 6.423828,0.08984 -0.211174,-7.698793 -0.188319,-9.642604 -0.188319,-9.642604 z m 7.479335,42.972682 c -1.435208,2.554065 -3.162218,4.678371 -5.595703,6.546875 0.04758,1.205972 0.106958,2.771357 0.146484,3.763672 0.127026,3.189 -0.169623,5.172888 -0.158203,5.304688 l 5.433594,0.06641 c 0.259012,-1.512432 0.268478,-7.828921 0.173828,-15.681645 z"
       transform="translate(0,952.3622)"
       id="path4365"
       inkscape:connector-curvature="0"
       sodipodi:nodetypes="cccccccsccc" />
  </g>
</svg>
