<?xml version="1.0" encoding="UTF-8" standalone="no"?>
<!-- Created with Inkscape (http://www.inkscape.org/) -->

<svg
   xmlns:dc="http://purl.org/dc/elements/1.1/"
   xmlns:cc="http://creativecommons.org/ns#"
   xmlns:rdf="http://www.w3.org/1999/02/22-rdf-syntax-ns#"
   xmlns:svg="http://www.w3.org/2000/svg"
   xmlns="http://www.w3.org/2000/svg"
   xmlns:sodipodi="http://sodipodi.sourceforge.net/DTD/sodipodi-0.dtd"
   xmlns:inkscape="http://www.inkscape.org/namespaces/inkscape"
   width="80"
   height="80"
   id="svg4293"
   version="1.1"
   inkscape:version="0.91 r13725"
   sodipodi:docname="ToolSelect.svg"
   inkscape:export-filename="H:\IMHOTEP\imhotep_unity\Assets\Core\UI\Images\Icons\ToolSelect.png"
   inkscape:export-xdpi="200"
   inkscape:export-ydpi="200">
  <defs
     id="defs4295">
    <inkscape:path-effect
       effect="spiro"
       id="path-effect4400"
       is_visible="true" />
    <inkscape:path-effect
       effect="spiro"
       id="path-effect4394"
       is_visible="true" />
    <inkscape:path-effect
       effect="spiro"
       id="path-effect4390"
       is_visible="true" />
    <inkscape:path-effect
       effect="spiro"
       id="path-effect4386"
       is_visible="true" />
    <inkscape:path-effect
       effect="spiro"
       id="path-effect4382"
       is_visible="true" />
    <inkscape:path-effect
       effect="spiro"
       id="path-effect4365"
       is_visible="true" />
    <inkscape:path-effect
       effect="spiro"
       id="path-effect4361"
       is_visible="true" />
    <inkscape:path-effect
       effect="spiro"
       id="path-effect4357"
       is_visible="true" />
    <inkscape:path-effect
       effect="spiro"
       id="path-effect4338"
       is_visible="true" />
    <inkscape:path-effect
       effect="spiro"
       id="path-effect4334"
       is_visible="true" />
    <inkscape:path-effect
       effect="spiro"
       id="path-effect4330"
       is_visible="true" />
    <inkscape:path-effect
       effect="spiro"
       id="path-effect4326"
       is_visible="true" />
    <inkscape:path-effect
       effect="spiro"
       id="path-effect4318"
       is_visible="true" />
    <inkscape:path-effect
       effect="spiro"
       id="path-effect4314"
       is_visible="true" />
    <inkscape:path-effect
       effect="spiro"
       id="path-effect4310"
       is_visible="true" />
    <clipPath
       clipPathUnits="userSpaceOnUse"
       id="clipPath4788">
      <path
         style="fill:#ffffff;fill-opacity:1;fill-rule:nonzero;stroke:#ffffff;stroke-width:3.39546537;stroke-linecap:round;stroke-linejoin:round;stroke-miterlimit:4;stroke-dasharray:none;stroke-dashoffset:0;stroke-opacity:1"
         d="m 114.01888,862.1734 -39.124215,6.7345 -2.565512,35.59663 63.496667,-7.69657 -4.81036,-32.38972 z"
         id="path4790"
         inkscape:connector-curvature="0" />
    </clipPath>
    <clipPath
       clipPathUnits="userSpaceOnUse"
       id="clipPath3869">
      <path
         style="opacity:0.9;fill:none;stroke:#8d3800;stroke-width:3;stroke-linecap:round;stroke-linejoin:round;stroke-miterlimit:4;stroke-dasharray:none;stroke-dashoffset:0;stroke-opacity:1"
         d="m 45.334386,1005.0444 0.566679,-6.13905 -5.005671,-3.30563 0.944466,-8.02796 1.983379,-7.0835 18.133755,3.87231 0.28334,24.46163 z"
         id="path3871"
         inkscape:connector-curvature="0" />
    </clipPath>
  </defs>
  <sodipodi:namedview
     id="base"
     pagecolor="#000000"
     bordercolor="#666666"
     borderopacity="1.0"
     inkscape:pageopacity="0"
     inkscape:pageshadow="2"
     inkscape:zoom="5.6568544"
     inkscape:cx="52.990371"
     inkscape:cy="36.369566"
     inkscape:document-units="px"
     inkscape:current-layer="layer1"
     showgrid="true"
     inkscape:snap-global="false"
     inkscape:window-width="1600"
     inkscape:window-height="1137"
     inkscape:window-x="-8"
     inkscape:window-y="-8"
     inkscape:window-maximized="1"
     borderlayer="false"
     inkscape:showpageshadow="true"
     showborder="true">
    <inkscape:grid
       type="xygrid"
       id="grid4301"
       empspacing="9"
       visible="true"
       enabled="true"
       snapvisiblegridlinesonly="true"
       spacingx="5px"
       spacingy="5px" />
  </sodipodi:namedview>
  <metadata
     id="metadata4298">
    <rdf:RDF>
      <cc:Work
         rdf:about="">
        <dc:format>image/svg+xml</dc:format>
        <dc:type
           rdf:resource="http://purl.org/dc/dcmitype/StillImage" />
        <dc:title></dc:title>
      </cc:Work>
    </rdf:RDF>
  </metadata>
  <g
     inkscape:groupmode="layer"
     id="layer2"
     inkscape:label="Background"
     style="display:none"
     transform="translate(0,-280)">
    <rect
       style="opacity:0.9;fill:#1a1a1a;fill-opacity:0.88235294;fill-rule:nonzero;stroke:#a42e00;stroke-width:3;stroke-linecap:round;stroke-linejoin:round;stroke-miterlimit:4;stroke-dasharray:none;stroke-dashoffset:0;stroke-opacity:1"
       id="rect3771"
       width="585"
       height="540"
       x="-90"
       y="-90"
       sodipodi:insensitive="true" />
  </g>
  <g
     inkscape:label="Layer 1"
     inkscape:groupmode="layer"
     id="layer1"
     transform="translate(0,-972.3622)">
    <path
       style="fill:none;stroke:#ffffff;stroke-width:3;stroke-linecap:round;stroke-linejoin:round;stroke-miterlimit:4;stroke-dasharray:none;stroke-dashoffset:0;stroke-opacity:1"
       d="m 170.76549,753.95502 c 0,0 -0.0531,4.86508 -0.7711,6.40356 -0.71796,1.53848 -6.15392,5.3334 -8.10267,6.05136 -1.94874,0.71795 -13.43606,4.718 -13.43606,4.718"
       id="path3822"
       inkscape:connector-curvature="0"
       sodipodi:nodetypes="cssc" />
    <path
       style="fill:none;stroke:#ffffff;stroke-width:3;stroke-linecap:round;stroke-linejoin:round;stroke-miterlimit:4;stroke-dasharray:none;stroke-dashoffset:0;stroke-opacity:1"
       d="m 166.89502,748.61168 c -2.05965,-7.13134 -2.70919,-10.63394 -3.16983,-16.86884 0,0 -0.30769,-7.48727 0.6154,-10.15397 1.44539,-4.17555 2.56413,-8.71805 7.89753,-11.07705 3.91719,-1.7326 8.12106,-1.50142 8.12106,-1.50142 0,0 4.20388,-0.23118 8.12107,1.50142 5.3334,2.359 6.45214,6.9015 7.89753,11.07705 0.92309,2.6667 0.6154,10.15397 0.6154,10.15397 -0.21509,6.64415 -1.62688,12.71236 -3.34288,17.12842 -2.01613,4.73811 -8.80859,9.37859 -13.29112,9.37859 -4.48252,0 -11.44803,-4.90007 -13.46416,-9.63817 z"
       id="path3820"
       inkscape:connector-curvature="0"
       sodipodi:nodetypes="ccsscsscccc" />
    <path
       inkscape:connector-curvature="0"
       id="path3824"
       d="m 189.44031,754.40607 c 0,0 0.32378,4.41403 1.04173,5.95251 0.71796,1.53848 6.15392,5.3334 8.10267,6.05136 1.94874,0.71795 13.43606,4.718 13.43606,4.718"
       style="fill:none;stroke:#ffffff;stroke-width:3;stroke-linecap:round;stroke-linejoin:round;stroke-miterlimit:4;stroke-dasharray:none;stroke-dashoffset:0;stroke-opacity:1"
       sodipodi:nodetypes="cssc" />
    <circle
       style="fill:none;fill-rule:evenodd;stroke:#ffffff;stroke-width:4.41002941;stroke-linecap:butt;stroke-linejoin:miter;stroke-miterlimit:4;stroke-dasharray:none;stroke-opacity:1"
       id="path3411"
       cx="40.125"
       cy="1012.2372"
       r="35.169987" />
    <path
       style="fill:#ffffff;fill-rule:evenodd;stroke:#ffffff;stroke-width:0.88200593px;stroke-linecap:butt;stroke-linejoin:miter;stroke-opacity:1"
       d="m 54.738391,988.6556 c -3.833103,0.50853 -6.698315,3.77507 -6.7029,7.64175 0.0034,0.79861 0.130608,1.59187 0.377263,2.35144 l -26.622107,26.98901 c -4.871676,5.4113 0.916901,9.864 5.223129,5.4557 l 27.111345,-27.256 c 0.534812,0.1167 1.080524,0.1762 1.627921,0.1774 4.262196,-2e-4 7.717335,-3.4554 7.717552,-7.71755 -2.8e-5,-1.29245 -0.21438,-2.48151 -0.833771,-3.61588 l -0.267014,0.23429 -2.702866,5.43674 -5.092206,0.55986 -2.656353,-4.58402 2.807949,-5.34371 z m -31.206127,38.4654 c 1.187351,0 2.149889,0.9626 2.149889,2.1499 0,1.1874 -0.962538,2.1499 -2.149889,2.1499 -1.187351,0 -2.149889,-0.9625 -2.149889,-2.1499 0,-1.1873 0.962538,-2.1499 2.149889,-2.1499 z"
       id="path4215"
       inkscape:connector-curvature="0"
       sodipodi:nodetypes="cccccccccccccccsssss" />
    <path
       style="fill:#ffffff;fill-rule:evenodd;stroke:#ffffff;stroke-width:0.88200593px;stroke-linecap:butt;stroke-linejoin:miter;stroke-opacity:1"
       d="m 47.539631,1013.7713 c -1.780956,1.8043 -3.558188,3.5028 -5.341992,5.3058 l 12.043807,11.8812 c 5.411282,4.8717 9.863954,-0.9169 5.455688,-5.2231 z"
       id="path4251"
       inkscape:connector-curvature="0"
       sodipodi:nodetypes="ccccc" />
    <path
       style="fill:#ffffff;fill-rule:evenodd;stroke:#ffffff;stroke-width:0.88200593px;stroke-linecap:butt;stroke-linejoin:miter;stroke-opacity:1"
       d="m 20.750156,991.07422 -1.170536,1.13068 2.260984,4.16997 2.612679,0.93626 10.319592,11.81057 c 0.924787,-0.892 1.34189,-1.356 2.268484,-2.2465 l -11.418891,-10.57825 -0.429553,-2.4165 z"
       id="path4255"
       inkscape:connector-curvature="0"
       sodipodi:nodetypes="ccccccccc" />
  </g>
</svg>
